<svg width="50" height="50" viewBox="0 0 50 50" fill="none" xmlns="http://www.w3.org/2000/svg">

<g id="code">
<path style="fill: rgb(117, 114, 213);" d="M46.917,10.199c-4.518,0-7.885,3.682-7.484,8.182l38.091,427.247c0.401,4.5,4.29,9.171,8.646,10.381 l161.636,44.879c4.354,1.21,11.478,1.21,15.833,0.003l162.127-44.953c4.354-1.208,8.248-5.879,8.649-10.377l38.153-427.179 c0.404-4.5-2.966-8.182-7.484-8.182L46.917,10.199L46.917,10.199z M183.083,292.6c4.518,0,8.542,3.682,8.946,8.182l2.413,27.042 c0.401,4.5,4.296,9.144,8.66,10.322l44.723,12.078c4.36,1.178,7.945,2.143,7.965,2.143c0.019,0,3.603-0.966,7.965-2.144 l44.803-12.107c4.36-1.178,8.259-5.825,8.663-10.322l4.858-54.178c0.404-4.5-2.962-8.182-7.48-8.182H142.478 c-4.518,0-8.542-3.684-8.943-8.182l-13.305-149.064c-0.357-4.013,3.046-7.298,7.565-7.298h256.091c4.516,0,7.921,3.284,7.563,7.299 l-4.313,47.103h-199.89c-4.518,0-7.885,3.682-7.484,8.182l3.521,39.357c0.401,4.499,4.427,8.182,8.946,8.182h182.716 c4.024,0,7.02,3.284,6.656,7.298l-13.85,155.14c-0.225,2.525-3.969,5.58-8.323,6.787l-95.51,26.483 c-4.354,1.206-7.972,2.205-8.039,2.219c-0.067,0.015-3.684-0.963-8.039-2.17l-95.612-26.531c-4.354-1.208-8.244-5.879-8.646-10.379 l-6.154-69.078c-0.401-4.5,2.969-8.182,7.487-8.182L183.083,292.6L183.083,292.6z" fill="#FB8028"></path><g>
<path style="fill: rgb(117, 114, 213);" d="M255.727,512c-3.784,0-7.567-0.428-10.65-1.285l-161.635-44.88 c-8.393-2.331-15.304-10.629-16.076-19.305L29.274,19.286c-0.444-4.991,1.209-9.936,4.533-13.57C37.131,2.084,41.909,0,46.917,0 h418.166c5.011,0,9.793,2.086,13.117,5.723c3.324,3.636,4.973,8.583,4.525,13.572l-38.153,427.173 c-0.774,8.673-7.687,16.97-16.082,19.298l-162.127,44.953C263.28,511.573,259.502,512,255.727,512z M49.852,20.398l37.831,424.324 c0.104,0.395,0.846,1.286,1.31,1.49l161.541,44.848c2.569,0.715,7.807,0.714,10.383,0.001l162.124-44.952 c0.36-0.169,1.081-1.028,1.221-1.527l37.884-424.184H49.852z M256.031,419.198c-1.541,0-3.752-0.614-10.918-2.602L149.5,390.065 c-8.391-2.326-15.304-10.623-16.077-19.3l-6.155-69.078c-0.445-4.988,1.208-9.933,4.531-13.568 c3.325-3.634,8.104-5.719,13.114-5.719h38.168c9.835,0,18.226,7.674,19.103,17.471l2.408,26.972 c0.135,0.467,0.802,1.261,1.238,1.475l44.651,12.057c2.036,0.55,3.901,1.053,5.303,1.43c1.403-0.377,3.27-0.881,5.308-1.432 l44.73-12.088c0.439-0.215,1.109-1.013,1.244-1.482l4.589-51.175H142.479c-9.838,0-18.228-7.676-19.102-17.475l-13.305-149.063 c-0.415-4.675,1.109-9.162,4.29-12.641c3.351-3.662,8.248-5.762,13.433-5.762h256.091c0.001,0,0.003,0,0.004,0 c5.181,0,10.075,2.101,13.426,5.762c3.183,3.478,4.707,7.968,4.292,12.64l-4.316,47.13c-0.48,5.249-4.883,9.269-10.156,9.269 H190.182l3.161,35.323h181.603c4.775,0,9.331,1.991,12.502,5.461c3.172,3.474,4.743,8.197,4.311,12.958l-13.851,155.126 c-0.715,8.029-8.427,13.675-15.754,15.708l-95.512,26.484c-8.159,2.26-8.246,2.278-8.566,2.351 C257.274,419.075,256.719,419.198,256.031,419.198z M155.022,370.429l95.545,26.511c2.186,0.606,3.959,1.091,5.243,1.439 c1.424-0.393,3.321-0.917,5.384-1.489l95.509-26.483c0.418-0.115,0.799-0.273,1.119-0.432l13.28-148.765H192.229 c-9.84,0-18.233-7.677-19.105-17.477l-3.52-39.353c-0.446-4.992,1.207-9.937,4.53-13.572c3.324-3.634,8.102-5.718,13.111-5.718 h190.582l3.115-34.005H130.73l12.865,144.145H314.6c5.01,0,9.79,2.086,13.113,5.721s4.973,8.583,4.525,13.573l-4.859,54.176 c-0.78,8.701-7.729,16.98-16.163,19.258l-44.801,12.106c-9.246,2.498-9.246,2.498-10.625,2.498c-1.382,0-1.382,0-10.623-2.495 l-44.723-12.077c-8.437-2.279-15.384-10.56-16.159-19.265l-2.315-25.929h-34.121l5.887,66.084 C153.871,369.371,154.567,370.207,155.022,370.429z" fill="#C63F00"></path>
<path style="fill: rgb(130, 140, 230);" d="M190.727,55.077H77.517c-5.632,0-10.199-4.567-10.199-10.199s4.567-10.199,10.199-10.199h113.21 c5.632,0,10.199,4.567,10.199,10.199S196.36,55.077,190.727,55.077z" fill="#C63F00"></path>
<path style="fill: rgb(130, 140, 230);" d="M232.543,55.077h-4.08c-5.632,0-10.199-4.567-10.199-10.199s4.567-10.199,10.199-10.199h4.08 c5.632,0,10.199,4.567,10.199,10.199S238.176,55.077,232.543,55.077z" fill="#C63F00"></path></g>
</g>

<g id="css">
<path d="M38.0508 10.8437L12.946 10.8377L13.3515 15.7547L32.6381 15.7577L32.1519 20.8502H19.5035L19.9608 25.6742H31.7358L31.0392 32.2806L25.4969 33.7886L19.8663 32.2701L19.508 28.3134H14.5359L15.0877 35.5411L25.4969 38.7341L35.7309 35.8652L38.0493 10.8452L38.0508 10.8437ZM5.49844 2.56873H45.4984L41.86 42.9999L25.4542 47.5687L9.13993 42.9968L5.49844 2.56873Z" fill="#7572D5"/>
</g>

<g id="react">
<g clip-path="url(#clip0_20_1854)">
<path d="M47.8125 25C47.8125 22.0833 44.6875 19.375 39.4792 17.5L38.5417 17.1875V16.7708C39.6875 11.0416 38.8542 6.7708 36.25 5.2083C33.6458 3.6458 29.7917 5.10414 25.625 8.74997L25 9.37497L24.7917 9.16664H24.5833C20.3125 5.2083 16.1458 3.85414 13.5417 5.31247C10.9375 6.7708 10.2083 10.8333 11.25 16.1458C11.3596 16.4838 11.4295 16.8333 11.4583 17.1875L10.3125 17.6041C5.20833 19.375 2.1875 22.0833 2.1875 25C2.1875 27.9166 5.52083 30.8333 10.7292 32.7083L11.4583 32.9166C11.3296 33.2854 11.2593 33.672 11.25 34.0625C10.2083 39.2708 11.1458 43.2291 13.5417 44.6875C15.9375 46.1458 20.3125 44.7916 24.4792 41.1458L25.1042 40.625L25.9375 41.4583C28.8542 43.9583 31.7708 45.3125 34.0625 45.3125C34.8708 45.3309 35.6671 45.1137 36.3542 44.6875C38.9583 43.2291 39.8958 38.9583 38.75 33.5416V33.3333C38.705 33.1619 38.6702 32.988 38.6458 32.8125H38.9583C44.4792 30.8333 47.8125 28.0208 47.8125 25ZM44.7917 25C44.7917 26.25 42.5 28.4375 38.0208 29.8958H37.8125C37.2664 28.2202 36.6051 26.5843 35.8333 25C36.5625 23.3333 37.1875 21.6666 37.7083 20.1041L38.5417 20.3125C42.7083 21.7708 44.7917 23.75 44.7917 25ZM27.9167 39.1666L27.0833 38.5416C28.2761 37.2201 29.3891 35.8287 30.4167 34.375L35.7292 33.5416C35.8333 33.75 35.8333 33.9583 35.9375 34.0625C36.3087 35.9492 36.379 37.8829 36.1458 39.7916C35.9995 40.7045 35.5608 41.5452 34.8958 42.1875C33.8542 42.8125 31.0417 41.9791 27.9167 39.1666ZM26.5625 34.5833L25.1042 36.4583L23.4375 34.5833H26.5625ZM12.2917 20C12.8152 21.7174 13.4771 23.3895 14.2708 25C13.4765 26.646 12.8146 28.3528 12.2917 30.1041L11.6667 29.8958C9.84256 29.3201 8.1454 28.4008 6.66667 27.1875C6.28377 26.9455 5.95605 26.6257 5.7048 26.2488C5.45356 25.872 5.2844 25.4465 5.20833 25C5.20833 23.75 7.29167 21.7708 11.25 20.4166L12.2917 20ZM23.4375 15.4166L25 13.6458L26.5625 15.4166H23.4375ZM34.8958 7.81247C36.0417 8.43747 36.6667 11.5625 35.7292 16.1458C35.734 16.2022 35.7272 16.2591 35.7093 16.3128C35.6914 16.3665 35.6627 16.416 35.625 16.4583L30.4167 15.625C29.3891 14.1712 28.2761 12.7799 27.0833 11.4583L27.7083 10.9375C31.0417 8.0208 33.75 7.18747 34.8958 7.81247ZM17.5 18.8541L16.6667 20.2083L15.9375 21.5625C15.625 20.8333 15.4167 20.1041 15.1042 19.2708L17.5 18.8541ZM15.1042 30.7291C15.4167 30 15.625 29.2708 15.9375 28.4375L16.6667 29.7916L17.5 31.1458L15.1042 30.7291ZM32.5 25C31.9699 26.142 31.3788 27.2548 30.7292 28.3333C30.1042 29.4791 29.375 30.5208 28.75 31.5625H21.25C20.5208 30.4166 19.7917 29.375 19.2708 28.3333C18.6161 27.2577 18.0248 26.1447 17.5 25C18.0054 23.8458 18.5974 22.7315 19.2708 21.6666C19.8693 20.5874 20.5301 19.544 21.25 18.5416C23.7457 18.3334 26.2543 18.3334 28.75 18.5416C29.4792 19.5833 30.1042 20.625 30.7292 21.6666C31.4026 22.7315 31.9946 23.8458 32.5 25ZM33.3333 20.2083L32.5 18.8541L34.8958 19.375C34.6639 20.1208 34.3856 20.8514 34.0625 21.5625L33.3333 20.2083ZM32.5 31.1458L33.3333 29.7916L34.0625 28.3333L35 30.7291L32.5 31.1458ZM22.8125 11.3541H22.9167L19.5833 15.5208L14.375 16.3541C14.2708 16.0416 14.2708 15.8333 14.1667 15.5208C13.3333 11.25 13.9583 8.3333 15 7.81247C15.2766 7.63082 15.61 7.55672 15.9375 7.60414C17.3958 7.60414 19.8958 8.6458 22.7083 11.1458L22.8125 11.3541ZM14.1667 34.5833C14.1857 34.2617 14.256 33.9452 14.375 33.6458L19.6875 34.375C20.689 35.8481 21.8034 37.2412 23.0208 38.5416L22.8125 38.75L22.6042 38.9583C21.184 40.2738 19.5211 41.2999 17.7083 41.9791C17.3107 42.1874 16.875 42.3133 16.4275 42.3491C15.98 42.3849 15.5299 42.3299 15.1042 42.1875C13.9583 41.5625 13.3333 38.75 14.1667 34.5833Z" fill="#7572D5"/>
<path d="M25 20.4166C24.0894 20.3959 23.1932 20.647 22.4259 21.1379C21.6586 21.6287 21.0549 22.3371 20.692 23.1726C20.3291 24.008 20.2233 24.9327 20.3882 25.8285C20.5532 26.7243 20.9812 27.5507 21.6179 28.2022C22.2545 28.8536 23.0709 29.3006 23.9627 29.4861C24.8545 29.6715 25.7813 29.587 26.6249 29.2434C27.4685 28.8998 28.1905 28.3126 28.6989 27.5568C29.2073 26.801 29.4789 25.9108 29.4792 24.9999C29.4795 23.8022 29.0109 22.6519 28.1738 21.7953C27.3366 20.9387 26.1974 20.4438 25 20.4166Z" fill="#7572D5"/>
</g>
<defs>
<clipPath id="clip0_20_1854">
<rect width="50" height="50" fill="white"/>
</clipPath>
</defs>
</g>

<g id="ts">
<path d="M5 25V45H45V5H5V25ZM37.235 23.4067C38.2517 23.66 39.025 24.1117 39.7367 24.8483C40.105 25.2417 40.6517 25.9583 40.695 26.1317C40.7083 26.1817 38.9683 27.3483 37.915 28.0033C37.8767 28.0283 37.7233 27.8633 37.5533 27.61C37.0367 26.86 36.4983 26.5367 35.6733 26.48C34.46 26.3967 33.68 27.0317 33.6867 28.0917C33.6756 28.3523 33.7343 28.6112 33.8567 28.8417C34.1233 29.3933 34.62 29.725 36.1733 30.3967C39.0383 31.63 40.2633 32.4417 41.025 33.5967C41.875 34.885 42.0667 36.9433 41.4883 38.4733C40.855 40.1367 39.28 41.2667 37.0633 41.64C36.3783 41.7617 34.7533 41.7433 34.0167 41.61C32.41 41.3233 30.8867 40.53 29.9467 39.4883C29.5783 39.0833 28.86 38.0217 28.905 37.9467C28.9233 37.92 29.0883 37.8183 29.2717 37.7117C29.4517 37.61 30.1233 37.2217 30.7583 36.8533L31.9083 36.1867L32.15 36.5433C32.4867 37.0567 33.2217 37.7617 33.6667 37.9967C34.9433 38.67 36.695 38.575 37.5583 37.8C37.7319 37.6538 37.8694 37.4693 37.9599 37.2612C38.0504 37.053 38.0915 36.8267 38.08 36.6C38.08 36.1367 38.0217 35.9333 37.78 35.5833C37.47 35.14 36.835 34.7667 35.0317 33.9833C32.9683 33.095 32.08 32.5433 31.2667 31.6667C30.759 31.0881 30.3841 30.4055 30.1683 29.6667C30.0167 29.1017 29.9783 27.685 30.0983 27.115C30.5233 25.12 32.0283 23.7317 34.2 23.3183C34.905 23.185 36.5433 23.235 37.235 23.4067ZM27.845 25.0767L27.8583 26.715H22.65V41.5083H18.9667V26.715H13.7633V25.1083C13.7633 24.2183 13.7817 23.475 13.8067 23.4583C13.8267 23.4317 16.995 23.4183 20.835 23.425L27.8267 23.445L27.845 25.0767Z" fill="#7572D5"/>
</g>

<g id="styled">
<path d="M37.2591 6.25L36.9888 7.64963C36.5708 10.3021 36.7221 11.061 37.8682 12.0454L38.9747 12.9546L37.8286 18.0305C37.1438 21.0588 36.3041 23.5968 35.7707 24.4308C35.313 25.1503 34.7796 26.2099 34.6642 26.7791C34.4732 27.4592 33.8245 28.1429 32.8334 28.7478C31.9576 29.2418 30.2385 30.5663 29.0203 31.6294C28.0472 32.4993 27.3769 33.0326 27.0129 33.2617L25.8235 34.196C25.4415 34.8046 25.2253 35.295 25.1424 35.6672C25.0595 36.0503 25.1063 36.3044 25.2289 36.4905C25.3478 36.6695 25.5532 36.7948 25.8343 36.8736C26.1671 36.951 26.5097 36.9788 26.8507 36.9559C27.6222 36.9035 28.3858 36.7691 29.1284 36.555C29.3807 36.487 29.5789 36.4225 29.7519 36.3653C30.0186 36.0395 30.6349 35.4238 31.7269 34.3535C34.6246 31.5149 35.731 29.9613 34.5885 30.3802C34.1669 30.5305 34.3579 30.1511 35.0823 29.3922C36.6104 27.9138 37.4862 25.6801 39.317 18.6748C40.7659 13.1443 40.7659 13.0656 41.8327 13.0656C42.3336 13.0656 43.75 13.1515 43.75 13.1515V6.25H40.4992H37.2591ZM24.4216 18.0806C23.3692 18.0735 21.1058 19.6664 14.3303 25.1611C14.0383 25.8519 14.0131 26.328 14.1464 26.6359C14.2329 26.8471 14.3915 26.9938 14.6114 27.1012C14.8276 27.2086 15.1087 27.2731 15.4187 27.2981C16.035 27.3518 16.763 27.2552 17.3504 27.1406L17.7469 27.0511C17.8826 26.8704 18.0608 26.7254 18.2659 26.6287C18.6839 26.3996 20.4391 24.8103 22.1943 23.1064C25.2829 19.9993 26.0073 18.5961 24.7495 18.1415C24.6463 18.1007 24.5326 18.08 24.4216 18.0806ZM32.336 20.2391C31.4098 20.2642 29.7411 21.3309 26.8831 23.5968C25.4487 24.753 24.5405 25.3759 24.0539 25.5047L22.1654 26.9867C21.4554 28.2753 21.3509 29.0736 21.5383 29.5139C21.5852 29.6225 21.6533 29.7208 21.7387 29.8031C21.8241 29.8855 21.925 29.9502 22.0357 29.9936C22.311 30.1015 22.6046 30.1562 22.9006 30.1546C23.608 30.1471 24.3112 30.0448 24.991 29.8504C25.3453 29.7559 25.6952 29.6461 26.0398 29.521L26.1443 29.4781L26.3353 29.3779C26.6957 28.9161 27.5246 28.0462 28.5626 27.044C31.8423 23.9011 33.5181 21.6674 33.1758 20.8333C33.0208 20.4288 32.7541 20.2248 32.336 20.2391ZM23.5998 24.1051C23.3331 24.1337 22.7349 24.5919 21.6573 25.5298C20.1003 26.8972 18.4028 27.6847 17.8154 27.3339C17.6788 27.3645 17.5419 27.3932 17.4045 27.4198C16.8062 27.5379 16.0602 27.6346 15.3934 27.5809C15.0793 27.562 14.7714 27.4855 14.4852 27.3554C14.2153 27.2328 13.9999 27.0164 13.8797 26.7468C13.7464 26.4247 13.7464 26.0238 13.8978 25.5119L11.5551 27.4234L6.2536 31.7798V38.8424L23.6251 25.2506C23.6217 25.1018 23.6411 24.9533 23.6827 24.8103C23.8161 24.3306 23.8089 24.0872 23.5998 24.1087V24.1051ZM31.0746 26.3925C30.8115 26.3925 30.3718 26.7612 29.669 27.5021C28.714 28.5152 27.2111 29.496 26.4146 29.6964L26.292 29.7609C26.1613 29.8145 26.0291 29.8646 25.8956 29.9112C25.6794 29.9828 25.3982 30.0687 25.0739 30.1546C24.4252 30.33 23.6179 30.4911 22.897 30.4732C22.5572 30.4728 22.2207 30.4072 21.9059 30.2799C21.6093 30.1585 21.3716 29.9275 21.2428 29.6356C21.0338 29.138 21.1167 28.44 21.5744 27.4485L6.25 39.4366V43.75H12.9823L27.2615 32.6103C27.6327 32.2022 28.1914 31.6438 28.9446 30.9457C30.9629 29.0879 31.4206 28.4472 31.4206 27.4986C31.4206 26.7612 31.3377 26.3889 31.0746 26.3889V26.3925ZM34.4732 33.3727L33.2514 34.5826C32.5667 35.2269 31.3449 36.0216 30.5088 36.3617L30.343 36.4333L30.3322 36.4512L30.2961 36.487C30.2637 36.512 30.2493 36.5156 30.2241 36.5263C29.8903 36.6518 29.5512 36.7629 29.2077 36.8592C28.4441 37.08 27.6586 37.218 26.8651 37.2709C26.4899 37.2948 26.1132 37.2622 25.7478 37.1743C25.4307 37.1049 25.1508 36.9213 24.9622 36.6588C24.7892 36.3939 24.7387 36.0395 24.836 35.6028C24.9134 35.2919 25.0284 34.9914 25.1784 34.7079L13.6563 43.75H28.9807L30.8115 41.6667C33.3271 38.7529 34.4732 36.6695 34.4732 34.8869V33.3727Z" fill="#7572D5"/>
</g>

<g id="figma">
<path d="M17.7083 4.16663C14.2565 4.16663 11.4583 6.96486 11.4583 10.4166C11.4583 13.8684 14.2565 16.6666 17.7083 16.6666H32.2916C35.7435 16.6666 38.5416 13.8684 38.5416 10.4166C38.5416 6.96486 35.7435 4.16663 32.2916 4.16663H17.7083Z" fill="#7572D5"/>
<path d="M32.2917 18.75C28.8398 18.75 26.0417 21.5481 26.0417 25C26.0417 28.4519 28.8398 31.25 32.2917 31.25C35.7436 31.25 38.5417 28.4519 38.5417 25C38.5417 21.5481 35.7436 18.75 32.2917 18.75Z" fill="#7572D5"/>
<path d="M11.4583 25C11.4583 21.5481 14.2565 18.75 17.7083 18.75H23.9583V31.25H17.7083C14.2565 31.25 11.4583 28.4519 11.4583 25Z" fill="#7572D5"/>
<path d="M17.7083 33.3334C14.2565 33.3334 11.4583 36.1315 11.4583 39.5834C11.4583 43.0352 14.2565 45.8334 17.7083 45.8334C21.1602 45.8334 23.9583 43.0352 23.9583 39.5834V33.3334H17.7083Z" fill="#7572D5"/>
</g>

<g id="hobby">
<path d="m487.527344 272.058594-68.328125-24.464844c-2.875-1.027344-5.4375-2.78125-7.441407-5.089844l-17.113281-19.710937-1.128906-29.269531 27.378906 5.199218 14.691407 16.925782 63.941406 22.894531c9.257812 3.3125 14.074218 13.503906 10.757812 22.757812-3.304687 9.226563-13.472656 14.082031-22.757812 10.757813zm0 0" fill="#ffb69e" style="fill: rgb(117, 114, 213);"></path><path d="m420.894531 198.722656-32.855469-37.847656c-6.445312-7.421875-17.6875-8.21875-25.113281-1.773438-7.425781 6.445313-8.21875 17.6875-1.773437 25.113282l33.492187 38.578125zm0 0" fill="#4699f2" style="fill: rgb(117, 114, 213);"></path><path d="m271.859375 509.929688c-11.148437-5.167969-15.996094-18.398438-10.828125-29.546876l42.664062-92.007812-3.855468-77.351562c-.613282-12.273438 8.839844-22.71875 21.113281-23.332032 12.265625-.625 22.71875 8.84375 23.332031 21.117188l4.128906 82.835937c.179688 3.605469-.519531 7.195313-2.039062 10.46875l-44.96875 96.992188c-5.171875 11.144531-18.398438 15.996093-29.546875 10.824219zm0 0" fill="#5f6e9b" style="fill: rgb(117, 114, 213);"></path><path d="m387.175781 491.679688-9.199219-105.386719-28.054687-83.4375c-3.917969-11.648438 2.347656-24.265625 13.996094-28.183594 11.648437-3.917969 24.265625 2.351563 28.183593 14l28.902344 85.953125c.5625 1.667969.921875 3.398438 1.078125 5.15625l9.429688 108.027344c1.066406 12.242187-7.992188 23.03125-20.234375 24.101562-12.246094 1.070313-23.03125-7.992187-24.101563-20.230468zm0 0" fill="#414b82" style="fill: rgb(117, 114, 213);"></path><path d="m299.902344 310.492188 102.066406 6.824218 9.253906-138.414062c.996094-14.902344-10.273437-27.785156-25.175781-28.785156l-48.109375-3.214844c-14.898438-.996094-27.785156 10.273437-28.78125 25.171875zm0 0" fill="#64afff" style="fill: rgb(117, 114, 213);"></path><path d="m373.675781 54.695312c-22.054687-1.472656-41.132812 15.210938-42.605469 37.265626-1.476562 22.058593 15.210938 41.132812 37.265626 42.609374 22.058593 1.472657 41.132812-15.210937 42.609374-37.269531 1.472657-22.054687-15.210937-41.132812-37.269531-42.605469zm0 0" fill="#ffb69e" style="fill: rgb(117, 114, 213);"></path><path d="m254.625 209.457031-70.601562-22.980469c-9.347657-3.042968-14.460938-13.089843-11.417969-22.4375 3.042969-9.347656 13.089843-14.457031 22.4375-11.417968l64.574219 21.019531 20.980468-8.125 23.101563 9.460937-10.488281 23.835938-26.652344 10.316406c-3.820313 1.480469-8.035156 1.597656-11.933594.328125zm0 0" fill="#ffb69e" style="fill: rgb(117, 114, 213);"></path><path d="m347.582031 158.671875c-3.546875-9.167969-13.859375-13.722656-23.027343-10.175781l-43.953126 17.019531 12.609376 33.296875 44.199218-17.113281c9.167969-3.550781 13.722656-13.859375 10.171875-23.027344zm0 0" fill="#4699f2" style="fill: rgb(117, 114, 213);"></path><path d="m223.171875 342.292969c-2.398437 0-4.753906-1.148438-6.203125-3.28125l-22.792969-33.554688c-12.769531-18.800781-17.589843-41.472656-13.574219-63.835937l9.195313-51.261719c5.148437-28.675781-7.414063-57.304687-32.003906-72.929687l-48.875-31.0625c-3.492188-2.21875-4.523438-6.847657-2.308594-10.339844 2.222656-3.492188 6.851563-4.523438 10.34375-2.304688l48.875 31.058594c29.746094 18.90625 44.941406 53.535156 38.71875 88.222656l-9.199219 51.261719c-3.320312 18.488281.667969 37.230469 11.222656 52.769531l22.792969 33.558594c2.324219 3.421875 1.433594 8.078125-1.988281 10.402344-1.289062.878906-2.753906 1.296875-4.203125 1.296875zm0 0" fill="#46738c" style="fill: rgb(117, 114, 213);"></path><path d="m129.128906 80.660156c4.59375 6.351563-.152344 15.203125-7.984375 14.886719l-94.714843-3.820313c-3.996094-.160156-7.453126-2.835937-8.609376-6.667968l-16.917968-56.039063c-1.496094-4.964843 1.3125-10.203125 6.273437-11.699219l56.042969-16.917968c3.828125-1.15625 7.96875.242187 10.316406 3.480468zm0 0" fill="#c8462d" style="fill: rgb(117, 114, 213);"></path>
</g>

<g id="telegram">
<path d="M18.9057 4.76449L16.3705 16.7208C16.1791 17.5644 15.6804 17.7745 14.9717 17.3772L11.1085 14.5305L9.24472 16.3235C9.0383 16.5299 8.86608 16.7022 8.46824 16.7022L8.74607 12.7681L15.9054 6.29885C16.2169 6.02162 15.8376 5.86741 15.4218 6.14524L6.57084 11.7186L2.76043 10.5257C1.93174 10.2671 1.91674 9.69701 2.93325 9.29917L17.837 3.55716C18.5271 3.29854 19.1308 3.71018 18.9057 4.76449Z" fill="#000027"/>
</g>

<g id="vk">
<path d="M18.1696 13.9941C17.8038 13.5391 17.3881 13.1314 16.9861 12.737C16.8432 12.5968 16.6954 12.4518 16.5529 12.3076C16.1439 11.8932 16.129 11.7375 16.4529 11.2668C16.6769 10.9424 16.9145 10.6175 17.1442 10.3033C17.3526 10.0183 17.568 9.72351 17.7746 9.42777L17.817 9.36697C18.2117 8.80103 18.6199 8.21583 18.8372 7.50988C18.8936 7.32363 18.9528 7.04955 18.8174 6.82036C18.682 6.59137 18.4195 6.52151 18.2337 6.48888C18.1418 6.47273 18.0506 6.47053 17.9659 6.47053L15.3809 6.46861L15.3595 6.46842C14.9687 6.46842 14.7053 6.65927 14.5544 7.05194C14.4103 7.42713 14.252 7.82665 14.0714 8.20653C13.7119 8.96298 13.2554 9.83425 12.5948 10.5609L12.5669 10.5918C12.4889 10.6787 12.4005 10.777 12.3359 10.777C12.326 10.777 12.3152 10.7751 12.303 10.7711C12.1662 10.7159 12.0744 10.3726 12.0785 10.213C12.0786 10.2108 12.0786 10.2086 12.0786 10.2064L12.0768 7.1105C12.0768 7.09976 12.0761 7.08913 12.0747 7.07849C12.009 6.57522 11.8633 6.26195 11.3129 6.15026C11.2983 6.14724 11.2834 6.14575 11.2685 6.14575H8.5806C8.14268 6.14575 7.90138 6.33018 7.67456 6.60623C7.61334 6.68002 7.48589 6.83364 7.54906 7.01998C7.61315 7.20911 7.8212 7.24955 7.88894 7.26268C8.22522 7.32899 8.41477 7.54213 8.46846 7.91453C8.56219 8.56121 8.57371 9.25144 8.50471 10.0868C8.48547 10.3189 8.44742 10.4982 8.38471 10.6514C8.37015 10.6872 8.31849 10.8038 8.26582 10.8039C8.24908 10.8039 8.20067 10.7971 8.11248 10.7341C7.90397 10.5861 7.75142 10.3749 7.57357 10.114C6.96853 9.22796 6.46074 8.25191 6.02097 7.12938C5.85787 6.71615 5.55327 6.48481 5.16289 6.478C4.73395 6.47125 4.34504 6.46799 3.97413 6.46799C3.56886 6.46799 3.19314 6.47187 2.82625 6.47978C2.51217 6.48553 2.29492 6.58308 2.18061 6.76996C2.06611 6.95697 2.07356 7.20264 2.20276 7.50001C3.23702 9.88254 4.17478 11.6149 5.24345 13.1171C5.99225 14.1683 6.74333 14.8959 7.60686 15.4068C8.51664 15.9461 9.5362 16.2083 10.7237 16.2083C10.8583 16.2083 10.9975 16.2048 11.1379 16.198C11.8279 16.1632 12.0839 15.9044 12.1163 15.2082C12.1317 14.8525 12.1692 14.4793 12.338 14.1611C12.4445 13.9606 12.5439 13.9606 12.5765 13.9606C12.6394 13.9606 12.7174 13.9906 12.8011 14.0468C12.9513 14.1484 13.0801 14.2845 13.1857 14.4034C13.285 14.5163 13.3833 14.6304 13.4817 14.7446C13.6939 14.9909 13.9134 15.2456 14.1427 15.4871C14.6445 16.0162 15.1973 16.2488 15.8323 16.1983H18.2023C18.2073 16.1983 18.2124 16.1981 18.2175 16.1978C18.4536 16.1817 18.6582 16.0459 18.7786 15.8254C18.9279 15.5522 18.9249 15.2037 18.7706 14.893C18.5956 14.5415 18.3685 14.2413 18.1696 13.9941Z" fill="currentColor"/>
</g>

<g id="mail">
<path d="m449.483,190.4l.001-.001-57.824-38.335v-128.134c0-4.142-3.358-7.5-7.5-7.5h-315.49c-4.142,0-7.5,3.358-7.5,7.5v128.143l-57.814,38.326 .001,.002c-2.022,1.343-3.357,3.639-3.357,6.249v232.26c0,4.142 3.358,7.5 7.5,7.5h437.84c4.142,0 7.5-3.358 7.5-7.5v-232.26c0-2.61-1.335-4.906-3.357-6.25zm-388.313,26.229l-23.525-12.479h23.525v12.479zm-46.17-7.511l172.475,91.49-172.475,114.327v-205.817zm211.417,83.671l194.037,128.621h-388.073l194.036-128.621zm38.945,7.82l172.477-91.491v205.821l-172.477-114.33zm126.298-96.459h23.536l-23.536,12.484v-12.484zm28.794-15h-28.794v-19.09l28.794,19.09zm-43.794-157.72v193.161l-125.527,66.586-20.573-13.637c-2.511-1.665-5.776-1.665-8.287,0l-20.57,13.635-125.533-66.589v-193.156h300.49zm-315.49,157.72h-28.782l28.782-19.08v19.08z" fill="#000000" style="fill: currentColor;"></path><path d="m226.415,213.671h59.754c4.142,0 7.5-3.358 7.5-7.5s-3.358-7.5-7.5-7.5h-59.754c-28.813,0-52.254-23.441-52.254-52.254v-2.213c0-28.813 23.441-52.254 52.254-52.254s52.254,23.441 52.254,52.254v5.533c0,6.237-5.074,11.312-11.312,11.312s-11.312-5.074-11.312-11.312v-10.512c0-17.864-14.533-32.398-32.397-32.398s-32.397,14.533-32.397,32.398c0,17.864 14.533,32.397 32.397,32.397 8.169,0 15.636-3.045 21.34-8.052 4.644,7.483 12.932,12.478 22.369,12.478 14.508,0 26.312-11.803 26.312-26.312v-5.533c0-37.084-30.17-67.254-67.254-67.254s-67.254,30.17-67.254,67.254v2.213c5.68434e-14,37.085 30.17,67.255 67.254,67.255zm-2.767-57.049c-9.593,0-17.397-7.804-17.397-17.397s7.805-17.398 17.397-17.398 17.397,7.805 17.397,17.398-7.804,17.397-17.397,17.397z" fill="#000000" style="fill: currentColor;"></path>
</g>

<g id="portfolyo">
<g id="Page-1" stroke="none" stroke-width="1" fill="none" fill-rule="evenodd"><g id="088---Portfolio" fill-rule="nonzero"><path d="M43,12.5 L42.77,12.5 C42.1063035,10.6904361 40.7999795,9.18834147 39.1,8.28 C36.3225174,6.72649091 33.1818472,5.9395977 30,6 C29.49,6 28.99,6.02 28.5,6.06 C22.83,6.45 18.28,9.1 17.23,12.5 L17,12.5 C17.0009101,11.0458014 17.3075419,9.6080391 17.9,8.28 C19.9043951,4.1682322 23.9389389,1.42778736 28.5,1.08 C28.9983178,1.02788806 29.4989662,1.00118682 30,1 C37.18,1 43,6.15 43,12.5 Z" id="Shape" fill="#7FACFA"></path><path d="M39.1,8.28 C37.0956049,4.1682322 33.0610611,1.42778736 28.5,1.08 C23.9389389,1.42778736 19.9043951,4.1682322 17.9,8.28 C20.6774826,6.72649091 23.8181528,5.9395977 27,6 C27.51,6 28.01,6.02 28.5,6.06 L39.1,8.28 Z" id="Shape" fill="#A4C2F7"></path><rect id="Rectangle-path" fill="#CAD9FC" x="1" y="19" width="58" height="40" rx="2"></rect><path d="M53.625,21 L53.625,57 C53.6451342,58.079413 52.7902556,58.972703 51.711,59 L2.914,59 C1.83474439,58.972703 0.979865836,58.079413 1,57 L1,21 C0.979865836,19.920587 1.83474439,19.027297 2.914,19 L51.714,19 C52.7920739,19.0289147 53.6451558,19.9217267 53.625,21 Z" id="Shape" fill="#FFFFFF"></path><rect id="Rectangle-path" fill="#E8EDFC" x="3.87" y="19" width="52.13" height="40" rx="2" style="fill: rgb(255, 255, 255);"></rect><path d="M59,31 L59,57 C58.9967052,58.1032019 58.1032019,58.9967052 57,59 L3,59 C1.89679813,58.9967052 1.0032948,58.1032019 1,57 L1,31 C8.01613421,35.2021773 15.8660077,37.8199394 24,38.67 L36,38.67 C42.9701047,37.8923688 49.7441149,35.8703267 56,32.7 C57.0295011,32.1870508 58.0309223,31.6195787 59,31 Z" id="Shape" fill="#CAD9FC"></path><path d="M56,32 L56,57 C55.9967052,58.1032019 55.1032019,58.9967052 54,59 L3,59 C1.89679813,58.9967052 1.0032948,58.1032019 1,57 L1,31 C1.81,31.41 2.77,31.96 3.87,32.56 C7.91,34.79 13.85,37.88 21,38.67 L33,38.67 C41.0081707,37.8621916 48.8021286,35.6019438 56,32 Z" id="Shape" fill="#FFFFFF"></path><path d="M56,33.38 L56,57 C55.9967052,58.1032019 55.1032019,58.9967052 54,59 L5.87,59 C4.76679813,58.9967052 3.8732948,58.1032019 3.87,57 L3.87,32 C7.65,33.94 14.77,37.67 23.87,38.67 L35.87,38.67 C42.8054553,37.9160315 49.5899087,36.1331325 56,33.38 Z" id="Shape" fill="#E8EDFC" style="fill: rgb(255, 255, 255);"></path><rect id="Rectangle-path" fill="#CAD9FC" x="24" y="33" width="12" height="8" rx="1"></rect><path d="M34,41 L34,47 C33.9967052,48.1032019 33.1032019,48.9967052 32,49 L28,49 C26.8967981,48.9967052 26.0032948,48.1032019 26,47 L26,41 L34,41 Z" id="Shape" fill="#CAD9FC"></path><rect id="Rectangle-path" fill="#E8EDFC" x="24" y="33" width="9" height="8" rx="1" style="fill: rgb(255, 255, 255);"></rect><path d="M31,41 L31,47 C30.9967052,48.1032019 30.1032019,48.9967052 29,49 L28,49 C26.8967981,48.9967052 26.0032948,48.1032019 26,47 L26,41 L31,41 Z" id="Shape" fill="#E8EDFC" style="fill: rgb(255, 255, 255);"></path><path d="M21,17 L21,19 L13,19 L13,17 C13.0032948,15.8967981 13.8967981,15.0032948 15,15 L19,15 C20.1032019,15.0032948 20.9967052,15.8967981 21,17 Z" id="Shape" fill="#CAD9FC"></path><path d="M47,17 L47,19 L39,19 L39,17 C39.0032948,15.8967981 39.8967981,15.0032948 41,15 L45,15 C46.1032019,15.0032948 46.9967052,15.8967981 47,17 Z" id="Shape" fill="#CAD9FC"></path><path d="M18,17 L18,19 L13,19 L13,17 C13.0032948,15.8967981 13.8967981,15.0032948 15,15 L16,15 C17.1032019,15.0032948 17.9967052,15.8967981 18,17 Z" id="Shape" fill="#E8EDFC" style="fill: rgb(255, 255, 255);"></path><path d="M44,17 L44,19 L39,19 L39,17 C39.0032948,15.8967981 39.8967981,15.0032948 41,15 L42,15 C43.1032019,15.0032948 43.9967052,15.8967981 44,17 Z" id="Shape" fill="#E8EDFC" style="fill: rgb(255, 255, 255);"></path><polygon id="Shape" fill="#FFFFFF" points="0 57 0 44 0 21 2 21 2 44 2 57"></polygon><path d="M1,52 C0.44771525,52 6.76353751e-17,52.4477153 0,53 L0,57 L2,57 L2,53 C2,52.4477153 1.55228475,52 1,52 Z" id="Shape" fill="#428DFF"></path><path d="M2,21 L0,21 L0,45 C6.76353751e-17,45.5522847 0.44771525,46 1,46 C1.55228475,46 2,45.5522847 2,45 L2,21 Z" id="Shape" fill="#428DFF"></path><path d="M5.77315973e-18,49 C0.0038803852,49.2647269 0.107434956,49.518257 0.29,49.71 L0.44,49.83 C0.495727127,49.8678773 0.556261922,49.8981446 0.62,49.92 C0.676662423,49.9488877 0.737337452,49.9691127 0.8,49.98 C0.86614452,49.9911308 0.932961153,49.9978125 1,50 C1.26472686,49.9961196 1.51825702,49.892565 1.71,49.71 C1.80039684,49.6143929 1.87167695,49.5023813 1.92,49.38 C2.07087658,49.0070263 1.98864806,48.5802212 1.71,48.29 C1.61439291,48.1996032 1.50238132,48.128323 1.38,48.08 C1.25977769,48.028759 1.13067726,48.00158 1,48 C0.735273141,48.0038804 0.481742984,48.107435 0.29,48.29 C0.107434956,48.481743 0.0038803852,48.7352731 5.77315973e-18,49 Z" id="Shape" fill="#428DFF"></path><path d="M57,60 L3,60 C1.34314575,60 2.02906125e-16,58.6568542 0,57 C-6.76353751e-17,56.4477153 0.44771525,56 1,56 C1.55228475,56 2,56.4477153 2,57 C2,57.5522847 2.44771525,58 3,58 L57,58 C57.5522847,58 58,57.5522847 58,57 L58,21 C58,20.4477153 57.5522847,20 57,20 L3,20 C2.44771525,20 2,20.4477153 2,21 C2,21.5522847 1.55228475,22 1,22 C0.44771525,22 6.76353751e-17,21.5522847 0,21 C-2.02906125e-16,19.3431458 1.34314575,18 3,18 L57,18 C58.6568542,18 60,19.3431458 60,21 L60,57 C60,58.6568542 58.6568542,60 57,60 Z" id="Shape" fill="#428DFF"></path><path d="M24,39.67 C23.9632524,39.6699675 23.9265331,39.6679646 23.89,39.664 C15.5934151,38.81256 7.58751889,36.1381229 0.445,31.832 C-0.00353989367,31.5216012 -0.120585203,30.9090114 0.181923113,30.4551125 C0.484431428,30.0012137 1.09488096,29.8734747 1.554,30.168 C8.44423282,34.2650653 16.1378709,36.8260866 24.109,37.676 C24.6367449,37.7340729 25.0271094,38.1944436 24.9981298,38.7245826 C24.9691503,39.2547215 24.5309304,39.6697986 24,39.67 Z" id="Shape" fill="#428DFF"></path><path d="M36,39.67 C35.4692601,39.6692721 35.0315392,39.2540478 35.0028351,38.7240842 C34.9741309,38.1941205 35.3644435,37.7340479 35.892,37.676 C43.8631291,36.8260866 51.5567672,34.2650653 58.447,30.168 C58.906119,29.8734747 59.5165686,30.0012137 59.8190769,30.4551125 C60.1215852,30.9090114 60.0045399,31.5216012 59.556,31.832 C52.413182,36.138262 44.4069293,38.8127042 36.11,39.664 C36.0734669,39.6679646 36.0367476,39.6699675 36,39.67 Z" id="Shape" fill="#428DFF"></path><path d="M35,42 L25,42 C23.8954305,42 23,41.1045695 23,40 L23,34 C23,32.8954305 23.8954305,32 25,32 L35,32 C36.1045695,32 37,32.8954305 37,34 L37,40 C37,41.1045695 36.1045695,42 35,42 Z M25,34 L25,40 L35,40 L35,34 L25,34 Z" id="Shape" fill="#428DFF"></path><path d="M32,50 L28,50 C26.3431458,50 25,48.6568542 25,47 L25,41 C25,40.4477153 25.4477153,40 26,40 L34,40 C34.5522847,40 35,40.4477153 35,41 L35,47 C35,48.6568542 33.6568542,50 32,50 Z M27,42 L27,47 C27,47.5522847 27.4477153,48 28,48 L32,48 C32.5522847,48 33,47.5522847 33,47 L33,42 L27,42 Z" id="Shape" fill="#428DFF"></path><path d="M30,38 C29.731817,38.0035712 29.4743684,37.8947901 29.29,37.7 C29.200049,37.6078496 29.1287431,37.499193 29.08,37.38 C29.0239476,37.2613445 28.9965453,37.1311833 29,37 C29.0031874,36.7351323 29.1068415,36.4813584 29.29,36.29 C29.3373748,36.2472348 29.3871202,36.2071714 29.439,36.17 C29.4951855,36.1322956 29.556027,36.102043 29.62,36.08 C29.6766624,36.0511123 29.7373375,36.0308873 29.8,36.02 C30.1293633,35.9529759 30.4704889,36.054189 30.71,36.29 C30.8927337,36.4816338 30.9963165,36.735233 31,37 C30.996185,37.5506968 30.5506968,37.996185 30,38 Z" id="Shape" fill="#428DFF"></path><path d="M6,24 L5,24 C4.44771525,24 4,23.5522847 4,23 C4,22.4477153 4.44771525,22 5,22 L6,22 C6.55228475,22 7,22.4477153 7,23 C7,23.5522847 6.55228475,24 6,24 Z" id="Shape" fill="#428DFF"></path><path d="M55,24 L10,24 C9.44771525,24 9,23.5522847 9,23 C9,22.4477153 9.44771525,22 10,22 L55,22 C55.5522847,22 56,22.4477153 56,23 C56,23.5522847 55.5522847,24 55,24 Z" id="Shape" fill="#428DFF"></path><path d="M21,20 L13,20 C12.4477153,20 12,19.5522847 12,19 L12,17 C12,15.3431458 13.3431458,14 15,14 L19,14 C20.6568542,14 22,15.3431458 22,17 L22,19 C22,19.5522847 21.5522847,20 21,20 Z M14,18 L20,18 L20,17 C20,16.4477153 19.5522847,16 19,16 L15,16 C14.4477153,16 14,16.4477153 14,17 L14,18 Z" id="Shape" fill="#428DFF"></path><path d="M47,20 L39,20 C38.4477153,20 38,19.5522847 38,19 L38,17 C38,15.3431458 39.3431458,14 41,14 L45,14 C46.6568542,14 48,15.3431458 48,17 L48,19 C48,19.5522847 47.5522847,20 47,20 Z M40,18 L46,18 L46,17 C46,16.4477153 45.5522847,16 45,16 L41,16 C40.4477153,16 40,16.4477153 40,17 L40,18 Z" id="Shape" fill="#428DFF"></path><path d="M17,16 C16.4477153,16 16,15.5522847 16,15 L16,13 C16,12.4477153 16.4477153,12 17,12 C17.5522847,12 18,12.4477153 18,13 L18,15 C18,15.5522847 17.5522847,16 17,16 Z" id="Shape" fill="#428DFF"></path><path d="M43,16 C42.4477153,16 42,15.5522847 42,15 L42,13 C42,12.4477153 42.4477153,12 43,12 C43.5522847,12 44,12.4477153 44,13 L44,15 C44,15.5522847 43.5522847,16 43,16 Z" id="Shape" fill="#428DFF"></path><path d="M43,13.5 C42.4477153,13.5 42,13.0522847 42,12.5 C42,6.71 36.617,2 30,2 C23.383,2 18,6.71 18,12.5 C18,13.0522847 17.5522847,13.5 17,13.5 C16.4477153,13.5 16,13.0522847 16,12.5 C16,5.607 22.28,0 30,0 C37.72,0 44,5.607 44,12.5 C44,13.0522847 43.5522847,13.5 43,13.5 Z" id="Shape" fill="#428DFF"></path><path d="M43,15 C42.4477153,15 42,14.5522847 42,14 C42,10.206 36.505,7 30,7 C23.495,7 18,10.206 18,14 C18,14.5522847 17.5522847,15 17,15 C16.4477153,15 16,14.5522847 16,14 C16,8.953 22.149,5 30,5 C37.851,5 44,8.953 44,14 C44,14.5522847 43.5522847,15 43,15 Z" id="Shape" fill="#428DFF"></path></g></g>
</g>

<g id="hi">
<path d="m488.329 297.198-150.15 157.15c-27.01 27.01-63.64 42.18-101.83 42.18h-28.35c-72.896 0-132-59.098-132-132 0-35.13-9.25-69.63-26.81-100.05l-44.9-77.77c-6.874-11.904-5.248-26.481 3.17-36.53 14.129-16.905 41.052-14.859 52.26 4.53 65.343 113.181-10.324-17.886 63.94 110.75-51.165-190.945-50.943-185.344-49.14-195.7 0-1.038 1.305-6.21 3.11-9.82 14.736-30.269 58.656-25.525 67.2 6.33 2.667 9.956 44.598 166.459 47.17 176.06 0-218.052-.158-207.027.29-210.38 2.494-18.688 18.798-31.37 33.86-31.37 20.857-1.017 37.85 15.559 37.85 35.95v212c60.187-209.94 55.193-195.219 59.64-202 9.364-14.838 30.545-21.065 47.43-11.6 13.39 6.722 21.854 23.982 17.35 40.82l-52.42 195.62v42.53c0 14.26 17.23 21.4 27.31 11.32 48.396-56.028 44.072-51.165 46.39-53.33 25.043-23.209 59.097-26.622 70.36-20.99 17.798 7.652 23.2 31.37 8.27 46.3z" fill="#f9cfac"/><path d="m495.059 266.518-171.62 178.13c-21.57 18.97-48.26 31.02-76.6 34.68-89.326 11.613-154.84-54.566-154.84-130.8 0-35.13-9.25-69.63-26.81-100.05-60.57-103.012-57.054-96.973-57.73-98.3 7.873-9.419 20.689-13.713 33.04-10.32 6.937 1.904 10.911 5.071 15.42 9.58 33.984 56.921 67.84 116.02 67.74 116.02 8.577 0 14.82-8.136 12.6-16.421-47.77-178.274-45.517-167.194-45.19-174.889.275-11.258 6.855-23.247 17.59-29.51 4.504-2.645 9.5-4.026 9.91-4.03 12.36 3.01 22.73 12.51 26.26 25.66 4.702 17.551 42.087 157.088 47.17 176.06 0-225.792-.241-207.448.56-212.17.971-5.405 3.243-10.492 5.85-14.14 3.096-4.517 7.259-7.81 7.36-7.81 24.406-18.823 58.23-.974 58.23 28.32v212c58.389-203.668 55.258-192.954 55.8-194.36 8.526-24.295 41.074-32.801 60.43-12.01 1.231 1.393 5.522-17.036-60.23 232.21v42.53c0 12.236 13.656 24.05 29.43 17.91 10.597-4.128 16.536-12.665 24.66-22.07 36.553-42.309 32.184-37.333 34.723-40.003 10.643-10.294 24.525-18.298 40.437-21.977 6.702-1.534 17.297-2.891 23.78-1.9 8.803 1.356 16.059 6.676 20.17 13.8 1.137 1.904 1.812 3.76 1.86 3.86z" fill="#ffe4cc"/><path d="m223.999 455.528c-4.418 0-8-3.582-8-8 0-63.903 47.695-118.445 110.943-126.87 4.394-.576 8.404 2.494 8.986 6.873.584 4.38-2.494 8.403-6.873 8.986-55.331 7.37-97.057 55.095-97.057 111.011.001 4.418-3.581 8-7.999 8z" fill="#f9cfac"/>
</g>


<g id="l2" transform="translate(0.000000,465.000000) scale(0.100000,-0.100000)"
fill="#000027" stroke="none">
<path d="M3241 4574 c-2 -76 78 -248 162 -352 21 -26 71 -101 110 -167 81
-136 146 -313 146 -400 1 -54 -10 -82 -28 -71 -20 13 -12 -51 14 -108 57 -124
69 -182 54 -262 -9 -46 -8 -60 5 -79 9 -14 16 -28 16 -33 0 -13 -105 -82 -147
-98 -21 -7 -48 -13 -61 -14 l-24 0 21 -34 c12 -18 21 -36 21 -38 0 -3 -51 -8
-112 -11 -62 -4 -135 -12 -163 -20 l-50 -13 25 -16 c14 -9 35 -19 48 -23 32
-9 24 -24 -32 -54 -43 -23 -46 -27 -29 -39 18 -13 29 -16 96 -27 42 -7 117
-70 117 -100 0 -31 -75 -11 -141 39 l-58 44 -52 -12 c-50 -11 -61 -20 -73 -58
-4 -14 -17 -18 -56 -18 -52 0 -242 19 -248 25 -2 2 4 27 12 56 9 29 16 61 16
71 0 17 -2 18 -19 6 -30 -21 -158 -14 -185 10 -29 25 -76 46 -107 47 -21 1
-25 -3 -21 -20 5 -27 -16 -105 -28 -105 -39 0 -51 28 -23 56 22 21 35 134 18
149 -6 6 -22 27 -36 47 -27 42 -97 78 -150 78 -50 0 -115 -43 -129 -85 -13
-39 -33 -42 -38 -7 -2 12 -7 22 -12 22 -15 0 -67 -55 -84 -89 -15 -29 -20 -31
-69 -31 -33 0 -61 6 -76 17 l-24 16 5 -51 c3 -35 14 -63 32 -87 33 -43 17 -46
-27 -5 -26 26 -38 30 -67 26 -68 -10 -110 -29 -110 -52 0 -13 -11 -25 -32 -35
-26 -11 -34 -21 -36 -46 -4 -36 26 -73 58 -73 12 0 24 -10 29 -24 17 -43 65
-47 177 -15 l73 22 43 -35 c31 -26 48 -50 62 -89 41 -117 84 -196 144 -263 69
-78 95 -133 69 -147 -23 -13 -33 -121 -13 -151 10 -15 14 -41 12 -73 -2 -29 5
-73 16 -104 10 -30 16 -57 13 -59 -3 -3 -37 9 -77 26 -40 16 -74 29 -76 27 -2
-2 21 -36 52 -77 67 -87 71 -105 21 -83 -34 14 -33 12 20 -36 60 -56 67 -69
33 -69 -21 0 -20 -2 9 -33 17 -17 50 -70 74 -117 24 -47 53 -94 64 -105 27
-26 58 -75 52 -82 -8 -8 -49 17 -85 50 -51 49 -37 14 17 -42 27 -27 61 -53 75
-57 24 -6 25 -9 20 -45 -5 -30 -3 -40 10 -45 12 -5 16 -19 16 -56 0 -43 8 -63
58 -147 32 -53 78 -133 103 -178 42 -80 43 -83 24 -97 -23 -16 -16 -35 40
-121 22 -33 35 -64 35 -85 0 -42 30 -81 131 -170 l80 -71 112 3 112 3 3 36 c3
31 -2 39 -35 65 -21 15 -42 33 -48 39 -29 33 -122 102 -131 98 -13 -4 -64 51
-65 70 -2 30 -11 68 -35 139 -24 73 -28 78 -54 78 -24 0 -29 5 -34 37 -4 21
-11 49 -15 63 -35 100 -45 152 -44 229 1 71 -3 90 -22 120 -19 32 -22 45 -17
114 4 78 5 79 29 72 16 -4 36 1 56 13 18 11 62 23 100 27 49 5 73 12 87 27 24
26 109 33 125 11 19 -25 96 -28 147 -5 l46 20 -5 48 c-7 79 -11 90 -38 102
-19 9 -25 19 -24 44 0 28 10 41 66 88 72 61 193 191 193 208 0 6 -9 16 -21 22
-20 11 -17 15 41 67 33 30 67 68 75 83 14 26 13 28 -5 23 -37 -10 -22 25 25
57 45 31 58 55 53 99 -5 36 25 50 61 28 44 -26 46 -21 12 25 -20 27 -28 45
-21 52 6 6 14 5 22 -2 12 -9 149 -33 156 -27 1 1 -32 15 -75 30 -71 25 -94 32
-115 34 -4 1 -8 13 -10 29 -2 16 -9 27 -18 27 -8 0 -21 -12 -28 -27 -7 -16
-17 -28 -22 -28 -16 0 -21 19 -10 40 8 15 8 25 1 34 -6 7 -8 16 -4 19 10 11
103 8 103 -3 0 -5 9 -10 19 -10 40 0 207 62 313 117 l111 56 -56 53 c-58 54
-189 145 -266 184 -37 19 -50 21 -78 12 -18 -6 -42 -8 -53 -5 -26 7 -26 33 0
33 11 0 19 3 18 8 -1 4 2 22 6 40 8 36 26 44 26 11 0 -31 18 -59 35 -53 8 4
15 14 15 24 0 21 16 34 45 36 11 1 56 8 100 15 l80 13 -50 8 c-27 5 -69 6 -92
3 -57 -6 -57 12 0 59 l42 36 -50 -3 c-56 -2 -53 -10 -39 94 5 38 2 52 -20 83
-32 48 -41 75 -27 89 7 7 15 7 25 -2 25 -21 -10 105 -50 177 -34 63 -36 82 -9
82 8 0 19 9 25 21 10 17 5 40 -26 122 -20 56 -54 141 -75 188 -22 48 -39 90
-39 93 0 4 -11 23 -23 44 -13 20 -43 71 -67 112 -24 41 -49 82 -56 90 -23 28
-64 109 -64 126 0 9 -22 41 -50 71 -27 30 -50 59 -50 64 0 6 -11 25 -25 43
-13 18 -36 57 -49 87 -23 50 -25 52 -25 23z m-142 -2070 c17 -4 31 -13 31 -21
0 -14 51 -63 107 -101 18 -12 33 -26 33 -31 0 -5 -23 -11 -52 -14 -28 -4 -55
-10 -60 -15 -9 -9 115 -65 186 -84 25 -7 46 -18 46 -25 0 -7 -4 -13 -10 -13
-23 0 -7 -17 28 -29 35 -13 122 -90 122 -109 0 -5 -9 -17 -20 -27 -11 -10 -20
-31 -20 -47 0 -49 -28 -100 -95 -169 -63 -65 -81 -94 -50 -83 23 9 19 -34 -6
-76 -30 -48 -90 -120 -100 -120 -5 0 -9 12 -9 26 0 22 -2 25 -15 14 -8 -7 -20
-30 -27 -51 -6 -22 -17 -39 -24 -39 -15 0 -74 72 -74 90 0 7 -34 52 -75 101
-41 48 -75 92 -75 97 0 6 -8 8 -18 5 -14 -3 -26 9 -50 54 l-31 58 -1 -37 c0
-55 -20 -48 -80 27 -28 36 -55 65 -60 65 -5 0 -19 28 -32 61 -13 36 -30 64
-40 66 -36 10 -28 146 20 347 9 39 48 65 108 75 59 10 299 13 343 5z m-379
-614 c0 -28 -4 -40 -14 -40 -21 0 -27 14 -20 49 10 46 34 40 34 -9z m-103
-280 c10 -11 21 -20 26 -20 9 0 183 -107 221 -135 27 -21 13 -30 -47 -31 -38
-1 -59 5 -79 19 l-28 21 -30 -29 c-16 -16 -33 -25 -37 -22 -7 7 -47 135 -59
190 -8 32 8 36 33 7z m89 -385 c19 -29 11 -44 -14 -29 -19 12 -29 54 -13 54 6
0 18 -11 27 -25z"/>
<path d="M6161 3914 c-24 -31 -24 -31 -10 -75 20 -58 36 -70 92 -65 42 4 64
-2 154 -41 l104 -46 -7 -41 c-4 -22 -8 -84 -9 -136 -2 -52 -8 -110 -14 -129
-6 -21 -7 -39 -2 -45 6 -7 4 -39 -5 -81 -10 -47 -12 -76 -5 -90 14 -29 24 -91
26 -160 1 -33 4 -69 8 -80 3 -11 13 -46 22 -77 13 -45 21 -58 35 -58 18 0 53
-48 49 -67 -1 -4 1 -16 6 -26 5 -13 2 -22 -13 -33 -60 -42 -110 -196 -94 -292
12 -68 4 -104 -48 -235 -38 -94 -41 -111 -30 -131 7 -15 9 -36 5 -56 -11 -52
-68 -140 -90 -140 -32 -1 -287 -316 -340 -420 -30 -59 -32 -78 -16 -118 15
-35 6 -56 -29 -67 -10 -3 -23 -19 -29 -36 -8 -24 -7 -36 6 -57 41 -65 52 -72
124 -72 48 0 80 6 106 19 21 11 59 23 85 26 43 7 51 4 101 -31 76 -53 90 -84
91 -194 1 -83 3 -91 28 -117 26 -25 29 -26 66 -14 30 10 50 28 82 73 l42 60
-16 63 c-20 78 -20 85 -2 85 20 0 39 63 31 100 -13 58 -88 120 -144 120 -10 0
-27 13 -39 30 -21 28 -21 32 -8 58 10 19 12 32 5 39 -11 11 65 86 164 161 l56
44 27 -21 c15 -12 41 -21 60 -21 32 0 42 -9 139 -133 89 -113 119 -143 189
-191 145 -98 184 -135 213 -198 22 -49 35 -64 77 -89 32 -19 61 -47 75 -71 12
-21 30 -42 39 -46 9 -3 25 -16 35 -29 10 -12 57 -43 105 -68 48 -25 111 -68
141 -96 49 -46 52 -51 36 -63 -16 -11 -11 -16 47 -49 80 -44 82 -48 113 -133
13 -38 42 -117 64 -176 66 -179 65 -178 191 -178 83 0 99 3 114 19 16 18 16
26 5 78 -19 91 -80 198 -178 318 -50 61 -112 140 -138 177 -27 37 -52 67 -58
68 -20 1 -103 117 -147 204 l-45 90 78 163 c57 120 92 211 132 345 64 212 87
369 112 742 20 300 40 473 56 492 10 13 10 17 -1 24 -10 6 -8 15 10 40 13 18
27 49 31 69 4 20 14 54 22 76 10 27 12 42 5 46 -7 5 -5 21 6 51 19 45 38 145
26 131 -4 -4 -27 -35 -51 -68 -82 -113 -168 -193 -259 -240 -19 -10 -41 -26
-48 -36 -15 -22 -29 -24 -34 -6 -6 22 -63 117 -69 114 -3 -1 -29 -28 -56 -59
-39 -45 -55 -74 -72 -133 -13 -41 -27 -78 -33 -81 -5 -3 -7 -17 -4 -30 6 -21
3 -24 -19 -24 -33 0 -42 24 -25 64 35 85 16 131 -68 163 -132 52 -190 92 -330
227 -75 73 -146 136 -157 139 -11 3 -38 13 -60 21 -76 29 -160 13 -185 -34
-18 -33 -50 -141 -50 -166 0 -36 -21 -29 -74 25 -41 41 -48 54 -42 75 4 17 13
26 26 26 28 0 26 51 -5 128 -14 34 -24 79 -23 100 1 37 -24 92 -43 92 -20 0
-7 21 19 32 15 6 41 27 59 47 17 19 35 32 40 27 12 -12 8 -168 -6 -193 -6 -13
-18 -23 -26 -23 -20 0 -19 -10 5 -35 14 -15 29 -21 45 -17 23 4 24 5 10 33
-26 50 12 219 49 219 23 0 46 -36 46 -72 0 -32 2 -35 26 -30 14 2 28 11 31 18
7 20 31 17 42 -4 5 -9 26 -23 48 -31 21 -7 103 -42 183 -76 338 -146 479 -203
521 -210 l44 -7 -35 31 c-19 17 -183 112 -365 212 -181 100 -338 188 -347 196
-9 8 -22 12 -28 8 -14 -8 -40 13 -40 32 0 8 -8 25 -19 38 l-18 24 -12 -25 c-9
-20 -17 -25 -39 -22 -25 3 -28 7 -36 68 -10 76 13 180 39 180 20 0 19 13 -6
44 -22 28 -59 35 -59 12 0 -8 5 -18 11 -22 19 -11 1 -141 -27 -197 -30 -57
-57 -61 -62 -9 -3 30 -9 36 -60 59 -55 24 -58 24 -88 8 -32 -17 -32 -17 -131
34 -89 46 -173 107 -173 126 0 11 -32 34 -47 35 -6 0 -21 -12 -32 -26z m975
-926 c4 -13 17 -36 30 -51 31 -37 31 -51 -1 -43 -23 6 -24 5 -14 -20 5 -15 17
-40 26 -55 14 -23 15 -31 4 -41 -10 -11 -14 -10 -22 5 -6 9 -17 17 -24 17 -8
0 -15 5 -15 11 0 8 -4 8 -12 1 -14 -11 -65 -5 -73 8 -3 5 11 41 30 81 19 41
35 81 35 91 0 26 27 22 36 -4z m135 -324 c11 -14 10 -18 -6 -30 -22 -16 -25
-17 -44 -5 -18 12 -5 51 18 51 10 0 25 -7 32 -16z m-47 -366 c3 -18 17 -145
31 -283 22 -215 32 -274 70 -418 25 -92 45 -172 45 -177 0 -26 -21 -2 -85 95
-40 60 -77 105 -86 105 -9 0 -24 9 -34 20 -14 16 -15 22 -5 34 17 21 13 28
-53 85 -44 38 -66 51 -90 51 -29 0 -35 6 -65 61 -26 49 -30 64 -21 81 9 16 7
24 -12 44 -22 23 -22 25 -6 59 11 24 33 44 68 62 64 35 109 71 109 87 0 7 9
21 20 31 11 10 20 24 20 31 0 15 57 64 75 64 7 0 15 -15 19 -32z"/>
<path d="M4975 3552 c-27 -43 -30 -54 -27 -121 2 -63 0 -72 -14 -67 -10 4 -14
2 -10 -6 29 -73 29 -84 -3 -128 -17 -24 -31 -49 -31 -55 0 -15 -54 -27 -86
-19 -36 9 -29 30 19 59 l42 27 -63 -6 c-34 -3 -100 -15 -145 -27 -54 -13 -83
-17 -85 -10 -2 6 -12 21 -22 33 -23 28 -46 18 -69 -30 l-16 -32 -94 0 c-84 0
-97 3 -126 24 l-31 24 4 -86 c2 -48 8 -91 13 -96 17 -18 9 -34 -21 -45 -42
-14 -37 -19 14 -14 39 5 45 3 65 -26 12 -17 20 -35 17 -40 -3 -5 20 -35 52
-68 33 -33 72 -87 92 -128 21 -42 59 -93 95 -130 l60 -60 3 39 c3 37 -12 74
-85 211 -32 60 -35 69 -40 127 -4 35 -10 58 -17 58 -25 0 -47 25 -40 44 6 16
15 18 55 13 39 -5 51 -3 61 12 21 29 74 33 152 12 39 -11 82 -19 96 -18 25 2
25 1 25 -73 0 -68 -3 -81 -32 -126 -18 -28 -33 -64 -33 -80 0 -30 31 -91 57
-111 13 -10 12 -17 -7 -60 l-21 -48 20 -14 c21 -13 30 -61 11 -61 -17 0 -121
-151 -123 -178 -2 -22 -13 -32 -67 -59 -66 -33 -124 -88 -116 -110 7 -17 -86
-100 -122 -107 -52 -12 -59 -30 -28 -76 l27 -40 -60 -88 c-71 -103 -82 -145
-50 -186 22 -27 210 -127 334 -176 33 -13 79 -37 103 -52 23 -16 63 -36 87
-45 33 -11 45 -20 45 -35 0 -31 17 -54 49 -67 24 -10 34 -10 57 2 27 14 30 13
71 -20 23 -19 47 -32 52 -28 10 5 71 -78 71 -96 0 -11 106 -110 137 -129 22
-14 26 -13 38 4 22 30 29 121 15 218 -12 81 -12 91 4 106 16 16 18 16 34 -4 9
-12 25 -36 34 -53 9 -17 33 -40 51 -51 26 -16 55 -56 119 -168 157 -272 178
-311 178 -334 0 -13 13 -45 29 -72 29 -49 29 -51 12 -75 -34 -49 -34 -49 24
-67 39 -13 55 -23 55 -35 0 -10 4 -20 8 -23 15 -9 34 -117 28 -152 -4 -18 -2
-51 3 -71 6 -22 7 -64 2 -99 -4 -34 -5 -66 -3 -73 2 -7 38 -11 107 -11 97 0
105 1 116 22 21 39 23 148 4 193 -12 29 -55 225 -55 252 0 1 -14 18 -30 37
l-30 34 21 36 c12 20 20 38 18 40 -2 2 -24 7 -49 12 l-44 9 -22 100 c-25 109
-81 258 -106 278 -8 6 -20 26 -26 44 -6 17 -47 78 -93 135 -80 101 -119 170
-153 275 -10 29 -22 55 -27 58 -5 4 -9 18 -9 31 0 36 22 25 33 -17 12 -48 25
-57 32 -23 19 83 22 89 38 86 12 -2 17 4 17 24 0 16 11 36 29 53 l29 27 -115
57 c-103 52 -114 60 -111 82 2 15 -7 34 -23 52 -27 29 -152 263 -145 271 3 2
28 -14 58 -36 70 -53 206 -137 254 -157 133 -56 364 -86 378 -49 13 33 5 130
-15 203 -34 123 -112 260 -224 396 -30 37 -55 70 -55 74 0 3 32 14 71 23 109
26 143 46 147 86 4 38 -8 55 -61 89 -32 20 -36 27 -26 39 11 13 9 14 -15 8
-19 -5 -36 0 -64 18 -20 13 -74 35 -119 48 -111 32 -108 28 -94 87 13 55 4
116 -24 159 -23 35 -41 40 -81 20 -31 -14 -38 -14 -62 -2 -24 13 -31 12 -74
-10 l-48 -24 -10 25 c-14 36 -13 47 6 73 20 29 58 140 42 124 -25 -25 -30 -11
-23 62 7 75 -3 115 -38 161 -15 18 -15 17 -2 -20 18 -52 18 -73 1 -91 -12 -12
-20 -11 -58 6 -54 25 -65 25 -135 0 -32 -11 -61 -20 -65 -20 -14 0 -9 37 12
86 11 26 19 48 17 50 -1 2 -16 -18 -32 -44z m34 -398 c13 -37 6 -54 -24 -54
-29 0 -37 17 -25 54 15 46 32 46 49 0z m-534 -105 c4 -6 5 -12 2 -15 -7 -7
-37 7 -37 17 0 13 27 11 35 -2z m396 -1236 c0 -16 6 -83 13 -150 13 -133 13
-133 -38 -114 -26 11 -189 128 -194 141 -1 4 6 18 17 31 17 21 22 22 40 11 19
-11 21 -10 21 10 0 17 16 33 58 60 70 44 82 46 83 11z"/>
<path d="M9750 3180 c0 -5 -6 -10 -13 -10 -19 0 -41 -40 -28 -53 16 -16 14
-30 -8 -53 -28 -31 -41 -60 -41 -93 0 -17 -2 -31 -5 -31 -3 0 -33 14 -67 31
l-60 31 22 -32 c12 -17 42 -45 66 -63 l43 -32 1 -66 0 -67 -32 -7 c-105 -21
-362 -29 -425 -12 -29 8 -53 11 -53 7 0 -9 61 -64 86 -78 10 -6 15 -16 11 -26
-5 -13 -25 -16 -124 -16 -65 0 -160 7 -211 14 -50 8 -117 12 -148 9 l-56 -6 7
-33 c5 -29 3 -34 -12 -34 -15 0 -25 22 -51 123 -18 67 -32 132 -32 144 0 25
26 43 62 43 22 0 21 1 -7 19 -46 28 -82 71 -119 140 l-33 63 -5 -89 c-3 -69
-9 -98 -26 -127 -28 -47 -28 -47 6 -40 49 10 66 -18 101 -158 25 -103 29 -132
20 -152 -18 -39 -3 -111 25 -124 21 -9 29 -32 66 -184 23 -95 67 -274 97 -397
52 -211 55 -228 45 -285 -9 -58 -9 -62 14 -87 13 -14 24 -28 24 -31 0 -3 -18
-18 -41 -34 -29 -20 -48 -45 -65 -82 -13 -30 -24 -58 -24 -63 0 -5 19 4 41 21
l41 30 29 -21 c35 -25 36 -34 4 -81 -17 -26 -37 -40 -63 -47 -21 -6 -54 -28
-75 -49 l-38 -39 31 5 c33 5 60 -11 60 -36 0 -17 -39 -121 -70 -190 -11 -23
-20 -56 -20 -74 l0 -31 43 40 c48 45 111 64 132 41 7 -7 25 -42 41 -77 l28
-63 -27 -48 c-20 -36 -25 -56 -21 -79 7 -33 24 -53 24 -27 0 8 9 20 20 26 24
13 60 4 60 -13 0 -7 52 -76 115 -155 99 -125 115 -141 120 -120 3 13 21 106
40 207 25 137 39 187 52 197 24 18 40 17 52 -3 9 -15 10 -14 11 10 0 40 -15
64 -53 83 -47 25 -56 42 -57 110 0 48 4 65 19 78 25 23 87 31 134 18 20 -6 37
-8 37 -6 0 18 -26 47 -58 63 -20 11 -55 38 -77 61 -46 47 -41 54 35 65 30 4
62 1 95 -10 69 -22 269 -121 288 -143 9 -9 26 -74 40 -146 l25 -128 -21 -112
c-27 -146 -28 -217 -3 -244 16 -19 17 -33 12 -129 -3 -59 -8 -134 -12 -166
l-7 -57 61 0 c90 0 91 3 80 223 -9 169 -9 185 16 333 31 182 46 254 52 254 3
0 20 -11 38 -25 18 -14 36 -25 39 -25 4 0 7 56 7 125 0 69 9 214 21 323 11
108 19 240 17 292 -1 60 4 128 15 185 12 59 17 127 16 197 -2 87 0 111 14 125
11 13 13 23 7 33 -5 8 -10 29 -10 47 0 17 -5 35 -10 38 -6 4 -22 24 -35 46
-14 21 -37 45 -52 53 -27 13 -28 17 -25 75 4 56 6 63 33 76 56 30 75 102 38
149 -21 26 -131 86 -160 86 -8 0 -41 16 -73 34 -72 42 -96 84 -70 124 9 13 24
27 35 29 10 3 21 14 24 24 4 10 26 27 51 38 24 11 54 27 67 36 l22 16 -27 -5
c-16 -3 -39 -8 -53 -11 -25 -5 -25 -4 -24 53 1 32 -4 68 -10 80 -14 25 -14 69
-1 74 5 2 6 9 1 17 -6 9 -27 15 -58 15 -45 1 -48 3 -51 29 -3 25 -32 41 -32
17z m-174 -618 c25 -17 68 -117 83 -194 14 -72 20 -83 39 -86 15 -2 24 -14 32
-40 5 -20 17 -47 26 -60 15 -22 14 -25 -7 -57 -13 -19 -31 -36 -40 -38 -10 -3
-25 -20 -34 -38 -10 -19 -29 -46 -43 -61 -22 -24 -23 -28 -8 -34 26 -10 18
-92 -21 -219 -18 -60 -42 -156 -53 -213 -11 -57 -28 -122 -38 -145 -46 -101
-208 -263 -242 -242 -19 12 -10 53 15 73 l25 20 -39 7 c-22 3 -60 3 -85 0 -37
-6 -52 -3 -81 15 -39 24 -44 47 -17 79 15 19 22 21 67 12 l50 -9 -35 30 c-58
49 -76 59 -127 67 l-48 7 3 42 c3 34 -2 49 -26 80 -16 20 -32 43 -36 50 -15
26 -178 659 -183 712 -8 88 25 143 65 107 36 -33 66 -31 129 10 62 40 113 58
273 93 149 33 331 49 356 32z m-386 -1883 c20 -47 21 -61 14 -160 -3 -60 -10
-109 -15 -109 -4 0 -33 39 -64 86 -52 78 -57 90 -58 146 l-2 61 35 13 c58 21
66 18 90 -37z"/>
<path d="M13 2423 c-10 -3 -13 -53 -13 -199 l0 -194 65 0 65 0 -62 96 -61 96
21 97 c12 53 22 100 22 104 0 8 -18 8 -37 0z"/>
<path d="M593 2278 c-23 -29 -90 -174 -86 -186 3 -8 -3 -34 -12 -59 -17 -43
-17 -47 -1 -58 9 -7 16 -17 16 -23 0 -13 36 -49 62 -63 17 -9 18 2 15 175 -1
101 2 188 6 193 11 10 55 -43 63 -75 4 -13 1 -29 -5 -35 -6 -6 -11 -19 -11
-29 0 -24 34 -90 54 -107 9 -8 16 -21 16 -30 0 -9 11 -29 25 -46 43 -49 32
-74 -45 -104 l-65 -26 -12 -55 c-7 -30 -10 -67 -7 -81 3 -17 -1 -31 -16 -44
-11 -10 -20 -26 -20 -35 0 -12 -11 -20 -31 -24 -55 -11 -62 -8 -55 19 6 25 6
25 -74 -15 -79 -40 -80 -40 -118 -25 -20 9 -52 15 -69 13 -39 -3 -62 22 -63
69 0 23 -10 45 -33 70 -37 42 -102 185 -94 205 2 8 -4 24 -14 37 -19 23 -19
23 -19 -78 0 -56 3 -101 8 -101 14 0 42 -62 42 -92 0 -21 10 -40 33 -62 19
-17 40 -46 47 -65 12 -30 12 -35 -3 -46 -35 -25 30 -145 80 -145 13 0 22 -15
36 -60 10 -36 25 -63 37 -70 21 -11 28 -40 10 -40 -13 0 -13 -41 0 -75 10 -26
56 -75 71 -75 17 0 9 36 -12 53 -30 26 -24 91 9 95 29 4 62 -24 62 -53 0 -21
17 -45 32 -45 12 0 10 58 -3 83 -23 44 -51 67 -76 61 -21 -6 -23 -3 -23 28 0
19 -11 49 -26 71 -38 57 -28 71 51 65 l64 -6 16 34 c14 30 20 34 55 34 37 0
76 12 143 46 41 20 77 18 77 -4 0 -10 5 -23 11 -29 6 -6 11 -32 12 -59 2 -46
0 -49 -24 -52 -20 -2 -28 -10 -32 -30 -4 -18 -27 -45 -66 -76 -51 -41 -59 -51
-50 -67 7 -14 5 -31 -11 -66 l-20 -46 27 -29 c15 -16 38 -31 51 -35 36 -9 20
-27 -29 -33 -48 -6 -129 -55 -155 -96 -10 -14 -14 -33 -10 -49 5 -21 -1 -29
-42 -57 -65 -43 -127 -100 -144 -131 -7 -13 -23 -43 -36 -66 -25 -45 -73 -81
-110 -81 -29 0 -61 -17 -84 -44 -13 -16 -17 -39 -18 -92 0 -65 2 -73 25 -88
31 -20 77 -20 118 0 47 25 141 90 162 114 18 20 52 29 40 10 -3 -5 0 -10 8
-10 24 0 140 110 183 174 36 53 47 63 87 73 40 11 52 21 89 75 24 35 45 70 48
79 3 9 42 56 88 103 45 48 82 91 82 96 0 6 10 10 23 10 17 0 33 -20 76 -98 30
-53 81 -133 113 -176 83 -111 111 -163 110 -199 -1 -18 8 -68 19 -112 14 -60
26 -85 44 -98 14 -10 25 -25 25 -32 0 -31 42 -145 68 -184 16 -23 48 -53 71
-67 40 -22 53 -24 182 -24 76 0 139 4 139 8 0 12 -80 86 -131 120 -35 23 -52
44 -65 79 -11 26 -33 75 -50 108 -25 50 -29 66 -22 95 12 54 4 70 -76 153 -68
70 -78 86 -96 150 -12 40 -44 122 -71 184 -27 62 -49 118 -49 125 0 7 18 23
40 36 22 12 40 28 40 35 0 7 -11 29 -24 48 -15 21 -23 44 -20 56 4 14 -14 37
-71 91 -42 40 -80 84 -85 97 -7 19 -17 25 -39 25 -37 0 -42 13 -48 121 -8 119
3 193 32 227 22 26 28 27 104 25 67 -2 80 0 83 14 3 18 98 41 171 42 21 1 54
8 74 16 34 14 38 14 57 -3 39 -35 55 -34 114 7 46 32 72 42 131 51 41 6 80 15
85 20 12 9 13 119 1 165 -12 46 -25 58 -60 52 -44 -8 -156 -77 -166 -104 -5
-13 -14 -24 -21 -24 -28 -3 -135 2 -160 7 -26 5 -27 4 -22 -25 5 -26 3 -31
-12 -31 -11 0 -43 -11 -72 -25 -61 -28 -120 -33 -128 -10 -8 21 -64 46 -86 39
-10 -3 -43 4 -73 15 -31 12 -65 21 -76 21 -16 0 -19 5 -14 20 3 10 6 46 6 80
1 51 -4 65 -26 93 -51 62 -108 79 -197 58 -26 -6 -50 -5 -75 4 -69 23 -99 27
-110 13z"/>
</g>

<g id="lk">
  <path fill="#008000" d="M108.1,949.3c-0.6,27.1-23,48.5-50.1,48c-27.1-0.6-48.5-23-48-50.1c5.4-255.2,259.2-418.6,490-418.6c236.2,0,484.6,163.4,490,418.6c0.5,27.1-21,49.5-48,50.1c-27.1,0.5-49.5-21-50.1-48C887.7,750.1,685.2,626.7,500,626.7C314,626.7,112.1,756.4,108.1,949.3"/>
  <path fill="#008000" d="M500,493c108.2,0,196.2-88,196.2-196.2c0-108.1-88-196.2-196.2-196.2c-108.1,0-196.1,88-196.1,196.2C303.9,405,391.8,493,500,493 M500,591.1c-162.5,0-294.2-131.7-294.2-294.2C205.8,134.4,337.5,2.7,500,2.7c162.5,0,294.3,131.7,294.3,294.2C794.2,459.4,662.5,591.1,500,591.1L500,591.1L500,591.1z"/>
</g>

<g id="discord" fill="#000027" fill-rule="nonzero" stroke="none" stroke-width="1" stroke-linecap="butt" stroke-linejoin="miter" stroke-miterlimit="10" stroke-dasharray="" stroke-dashoffset="0" font-family="none" font-weight="none" font-size="none" text-anchor="none" style="mix-blend-mode: normal"><g transform="scale(5.12,5.12)"><path d="M41.625,10.76953c-3.98047,-3.20313 -10.27734,-3.74609 -10.54687,-3.76563c-0.41797,-0.03516 -0.81641,0.19922 -0.98828,0.58594c-0.01562,0.02344 -0.15234,0.33984 -0.30469,0.83203c2.63281,0.44531 5.86719,1.33984 8.79297,3.15625c0.46875,0.28906 0.61328,0.90625 0.32422,1.375c-0.19141,0.30859 -0.51562,0.47656 -0.85156,0.47656c-0.17969,0 -0.36328,-0.05078 -0.52734,-0.15234c-5.03125,-3.12109 -11.3125,-3.27734 -12.52344,-3.27734c-1.21094,0 -7.49609,0.15625 -12.52344,3.27734c-0.46875,0.29297 -1.08594,0.14844 -1.375,-0.32031c-0.29297,-0.47266 -0.14844,-1.08594 0.32031,-1.37891c2.92578,-1.8125 6.16016,-2.71094 8.79297,-3.15234c-0.15234,-0.49609 -0.28906,-0.80859 -0.30078,-0.83594c-0.17578,-0.38672 -0.57031,-0.62891 -0.99219,-0.58594c-0.26953,0.01953 -6.56641,0.5625 -10.60156,3.80859c-2.10547,1.94922 -6.32031,13.33984 -6.32031,23.1875c0,0.17578 0.04688,0.34375 0.13281,0.49609c2.90625,5.10938 10.83984,6.44531 12.64844,6.50391c0.00781,0 0.01953,0 0.03125,0c0.32031,0 0.62109,-0.15234 0.80859,-0.41016l1.82813,-2.51562c-4.93359,-1.27344 -7.45312,-3.4375 -7.59766,-3.56641c-0.41406,-0.36328 -0.45312,-0.99609 -0.08594,-1.41016c0.36328,-0.41406 0.99609,-0.45312 1.41016,-0.08984c0.05859,0.05469 4.69922,3.99219 13.82422,3.99219c9.14063,0 13.78125,-3.95312 13.82813,-3.99219c0.41406,-0.35937 1.04297,-0.32422 1.41016,0.09375c0.36328,0.41406 0.32422,1.04297 -0.08984,1.40625c-0.14453,0.12891 -2.66406,2.29297 -7.59766,3.56641l1.82813,2.51563c0.1875,0.25781 0.48828,0.41016 0.80859,0.41016c0.01172,0 0.02344,0 0.03125,0c1.80859,-0.05859 9.74219,-1.39453 12.64844,-6.50391c0.08594,-0.15234 0.13281,-0.32031 0.13281,-0.49609c0,-9.84766 -4.21484,-21.23828 -6.375,-23.23047zM18.5,30c-1.93359,0 -3.5,-1.78906 -3.5,-4c0,-2.21094 1.56641,-4 3.5,-4c1.93359,0 3.5,1.78906 3.5,4c0,2.21094 -1.56641,4 -3.5,4zM31.5,30c-1.93359,0 -3.5,-1.78906 -3.5,-4c0,-2.21094 1.56641,-4 3.5,-4c1.93359,0 3.5,1.78906 3.5,4c0,2.21094 -1.56641,4 -3.5,4z"></path></g></g>

<g id="play">
	<path fill="#000027" d="M27.881,12.934L5.908,0.477C5.36,0.165,4.584,0,3.942,0C1.851,0,0,1.589,0,3.542v24.916
		C0,30.411,1.839,32,3.916,32c0.638,0,1.339-0.165,1.885-0.476l22.106-12.459c1.102-0.628,1.777-1.757,1.777-3.019
		C29.685,14.748,29.022,13.585,27.881,12.934z M5.413,1.346l15.606,8.848l-4.785,5.076L2.994,1.226C3.347,1.083,3.721,1,4.091,1
		C4.565,1,5.01,1.116,5.413,1.346z M1,28.458V3.542c0-0.728,0.484-1.337,0.978-1.779L15.473,16L1.937,30.241
		C1.446,29.798,1,29.188,1,28.458z M5.381,30.654C4.979,30.884,4.536,31,4.064,31c-0.362,0-0.729-0.081-1.075-0.22l13.245-14.05
		l4.798,5.089L5.381,30.654z M27.45,18.195l-5.521,3.117L16.922,16l4.994-5.297l5.47,3.101c0.825,0.47,1.317,1.308,1.317,2.242
		C28.703,16.945,28.234,17.748,27.45,18.195z"/>
</g>

<g id="paper" transform="translate(0.000000,70.000000) scale(0.100000,-0.100000)" fill="#ffffff" stroke="none">
<path d="M0 260 l0 -260 9655 0 9655 0 0 55 0 55 -33 0 c-18 0 -38 5 -44 11&#10;-10 10 -31 10 -185 -7 -55 -6 -57 -5 -63 19 -7 26 -7 26 -38 8 -25 -14 -66&#10;-19 -177 -24 -170 -7 -210 -14 -210 -34 0 -12 -9 -14 -47 -8 -27 4 -55 13 -64&#10;21 -8 8 -21 14 -27 14 -7 0 -12 4 -12 10 0 5 -29 9 -67 8 -135 -3 -355 14&#10;-360 29 -6 15 -103 19 -103 3 0 -5 -19 -10 -43 -10 -24 0 -48 -5 -54 -11 -8&#10;-8 -30 -8 -79 1 -81 14 -60 14 -302 10 -146 -2 -195 -6 -199 -16 -4 -10 -10&#10;-10 -31 -1 -20 9 -26 9 -30 -1 -2 -6 -10 -12 -18 -12 -8 0 -14 -5 -14 -11 0&#10;-9 -25 -10 -89 -6 -82 6 -90 5 -96 -12 -5 -17 -18 -18 -159 -17 -113 1 -157 5&#10;-169 15 -10 7 -30 11 -47 9 -22 -3 -38 2 -56 19 -18 17 -37 23 -70 23 -30 0&#10;-51 6 -65 18 -11 11 -38 25 -61 31 -47 14 -83 2 -91 -30 -5 -18 -17 -19 -176&#10;-19 -130 0 -180 -4 -208 -15 -48 -20 -84 -19 -90 3 -4 15 -13 17 -68 14 -35&#10;-2 -79 1 -97 8 -18 6 -68 15 -112 20 -45 4 -82 13 -86 21 -6 9 -42 13 -125 15&#10;-116 2 -116 2 -133 -25 -9 -14 -17 -28 -19 -31 -2 -2 -32 -7 -67 -11 -48 -5&#10;-75 -14 -107 -37 l-44 -30 -280 -3 c-267 -3 -365 3 -365 22 0 5 -31 9 -69 9&#10;-47 0 -82 6 -112 20 -29 13 -66 20 -106 20 -59 0 -89 14 -63 30 37 23 -120 34&#10;-365 25 l-207 -7 -34 -35 c-30 -30 -38 -33 -70 -27 -31 6 -38 3 -64 -26 l-30&#10;-33 -37 16 c-21 8 -56 18 -78 21 -22 3 -46 14 -55 25 -8 11 -33 30 -55 42 -36&#10;21 -55 23 -205 26 -163 2 -177 1 -243 -34 -20 -10 -42 -13 -69 -9 -32 5 -43 3&#10;-53 -11 -12 -16 -19 -15 -111 15 -84 27 -114 32 -196 32 -59 0 -98 4 -98 10 0&#10;6 -14 10 -31 10 -31 0 -79 -37 -79 -61 0 -12 -103 -12 -116 0 -5 5 -67 11&#10;-137 13 -109 2 -131 6 -141 21 -7 9 -17 17 -22 17 -5 0 -22 7 -37 15 -38 19&#10;-477 35 -477 17 0 -7 -17 -27 -37 -47 l-38 -34 -113 -1 c-142 0 -200 13 -208&#10;47 -6 20 -11 23 -32 18 -16 -4 -28 -1 -33 7 -6 10 -61 15 -211 20 -112 5 -263&#10;10 -337 14 -88 3 -137 2 -144 -5 -6 -6 -38 -11 -71 -11 -93 -1 -247 -48 -281&#10;-86 -5 -7 -46 -15 -89 -18 -44 -4 -99 -16 -122 -27 -53 -24 -97 -24 -131 -2&#10;-25 17 -53 20 -287 39 -40 3 -83 14 -103 25 -25 14 -53 19 -107 19 -72 0 -170&#10;23 -243 56 -17 8 -64 17 -105 20 -65 6 -76 4 -97 -15 -29 -25 -35 -26 -111 -4&#10;-53 14 -66 15 -117 2 -63 -15 -562 -18 -747 -4 -90 6 -97 9 -131 41 -33 31&#10;-42 34 -99 34 -59 0 -146 -28 -146 -48 0 -4 -18 -15 -40 -25 -35 -15 -75 -17&#10;-299 -17 l-258 0 -39 -31 c-22 -17 -49 -42 -61 -56 -21 -24 -25 -25 -65 -14&#10;-24 7 -65 17 -93 23 -27 5 -62 16 -78 25 -17 8 -70 17 -126 20 -67 4 -104 11&#10;-121 23 -31 21 -86 40 -117 40 -13 0 -36 8 -50 18 -29 18 -84 20 -318 7 -95&#10;-5 -138 -3 -210 11 -49 10 -94 21 -100 25 -29 21 -141 43 -237 46 -107 4 -148&#10;-4 -148 -30 0 -22 -54 -37 -136 -37 -73 0 -84 -3 -109 -25 -31 -30 -83 -44&#10;-94 -26 -5 7 -47 16 -97 21 -49 4 -102 15 -119 24 -18 10 -55 16 -93 16 -53 0&#10;-69 4 -98 27 -26 19 -51 28 -92 31 -34 3 -61 11 -68 19 -5 8 -31 17 -56 20&#10;-37 4 -49 2 -65 -17 -13 -14 -23 -18 -28 -11 -8 15 -153 14 -194 0 -18 -6 -44&#10;-22 -58 -35 -14 -13 -30 -24 -34 -24 -5 0 -18 -9 -29 -20 -15 -15 -33 -20 -75&#10;-20 -56 0 -123 -21 -136 -42 -13 -20 -134 -23 -160 -4 -16 11 -45 16 -96 16&#10;-42 0 -73 4 -73 10 0 6 -7 10 -15 10 -8 0 -15 5 -15 10 0 6 -10 15 -22 20 -13&#10;5 -36 18 -53 29 -23 16 -46 21 -102 21 -40 0 -73 3 -73 8 0 17 -60 32 -131 32&#10;-43 0 -80 4 -84 9 -3 5 -18 12 -34 16 -16 3 -35 13 -42 21 -7 8 -30 14 -58 14&#10;-26 0 -51 4 -57 9 -5 4 -31 16 -58 25 -84 27 -160 19 -201 -22 -22 -22 -37&#10;-26 -113 -32 -93 -7 -112 -13 -112 -35 0 -21 -46 -29 -90 -16 -20 6 -53 11&#10;-72 11 -19 0 -43 7 -54 15 -10 8 -35 15 -55 15 -20 0 -49 7 -65 15 -22 11 -49&#10;13 -115 8 -60 -4 -88 -2 -93 6 -4 6 -19 11 -34 11 -17 0 -32 8 -40 21 -12 19&#10;-19 20 -120 14 -73 -5 -111 -12 -118 -21 -17 -21 -130 -18 -204 6 -35 11 -88&#10;23 -119 26 -31 3 -68 7 -83 9 l-28 5 0 -260z"/>
</g>
</svg>
