<svg version="1.0" xmlns="http://www.w3.org/2000/svg" width="1931.000000ptpx" height="70.000000ptpx" viewBox="0 0 1931.000000 70.000000" preserveAspectRatio="xMidYMid meet" transform="rotate(0) scale(1, 1)">

<g transform="translate(0.000000,70.000000) scale(0.100000,-0.100000)" fill="#ffffff" stroke="none">
<path d="M0 260 l0 -260 9655 0 9655 0 0 55 0 55 -33 0 c-18 0 -38 5 -44 11&#10;-10 10 -31 10 -185 -7 -55 -6 -57 -5 -63 19 -7 26 -7 26 -38 8 -25 -14 -66&#10;-19 -177 -24 -170 -7 -210 -14 -210 -34 0 -12 -9 -14 -47 -8 -27 4 -55 13 -64&#10;21 -8 8 -21 14 -27 14 -7 0 -12 4 -12 10 0 5 -29 9 -67 8 -135 -3 -355 14&#10;-360 29 -6 15 -103 19 -103 3 0 -5 -19 -10 -43 -10 -24 0 -48 -5 -54 -11 -8&#10;-8 -30 -8 -79 1 -81 14 -60 14 -302 10 -146 -2 -195 -6 -199 -16 -4 -10 -10&#10;-10 -31 -1 -20 9 -26 9 -30 -1 -2 -6 -10 -12 -18 -12 -8 0 -14 -5 -14 -11 0&#10;-9 -25 -10 -89 -6 -82 6 -90 5 -96 -12 -5 -17 -18 -18 -159 -17 -113 1 -157 5&#10;-169 15 -10 7 -30 11 -47 9 -22 -3 -38 2 -56 19 -18 17 -37 23 -70 23 -30 0&#10;-51 6 -65 18 -11 11 -38 25 -61 31 -47 14 -83 2 -91 -30 -5 -18 -17 -19 -176&#10;-19 -130 0 -180 -4 -208 -15 -48 -20 -84 -19 -90 3 -4 15 -13 17 -68 14 -35&#10;-2 -79 1 -97 8 -18 6 -68 15 -112 20 -45 4 -82 13 -86 21 -6 9 -42 13 -125 15&#10;-116 2 -116 2 -133 -25 -9 -14 -17 -28 -19 -31 -2 -2 -32 -7 -67 -11 -48 -5&#10;-75 -14 -107 -37 l-44 -30 -280 -3 c-267 -3 -365 3 -365 22 0 5 -31 9 -69 9&#10;-47 0 -82 6 -112 20 -29 13 -66 20 -106 20 -59 0 -89 14 -63 30 37 23 -120 34&#10;-365 25 l-207 -7 -34 -35 c-30 -30 -38 -33 -70 -27 -31 6 -38 3 -64 -26 l-30&#10;-33 -37 16 c-21 8 -56 18 -78 21 -22 3 -46 14 -55 25 -8 11 -33 30 -55 42 -36&#10;21 -55 23 -205 26 -163 2 -177 1 -243 -34 -20 -10 -42 -13 -69 -9 -32 5 -43 3&#10;-53 -11 -12 -16 -19 -15 -111 15 -84 27 -114 32 -196 32 -59 0 -98 4 -98 10 0&#10;6 -14 10 -31 10 -31 0 -79 -37 -79 -61 0 -12 -103 -12 -116 0 -5 5 -67 11&#10;-137 13 -109 2 -131 6 -141 21 -7 9 -17 17 -22 17 -5 0 -22 7 -37 15 -38 19&#10;-477 35 -477 17 0 -7 -17 -27 -37 -47 l-38 -34 -113 -1 c-142 0 -200 13 -208&#10;47 -6 20 -11 23 -32 18 -16 -4 -28 -1 -33 7 -6 10 -61 15 -211 20 -112 5 -263&#10;10 -337 14 -88 3 -137 2 -144 -5 -6 -6 -38 -11 -71 -11 -93 -1 -247 -48 -281&#10;-86 -5 -7 -46 -15 -89 -18 -44 -4 -99 -16 -122 -27 -53 -24 -97 -24 -131 -2&#10;-25 17 -53 20 -287 39 -40 3 -83 14 -103 25 -25 14 -53 19 -107 19 -72 0 -170&#10;23 -243 56 -17 8 -64 17 -105 20 -65 6 -76 4 -97 -15 -29 -25 -35 -26 -111 -4&#10;-53 14 -66 15 -117 2 -63 -15 -562 -18 -747 -4 -90 6 -97 9 -131 41 -33 31&#10;-42 34 -99 34 -59 0 -146 -28 -146 -48 0 -4 -18 -15 -40 -25 -35 -15 -75 -17&#10;-299 -17 l-258 0 -39 -31 c-22 -17 -49 -42 -61 -56 -21 -24 -25 -25 -65 -14&#10;-24 7 -65 17 -93 23 -27 5 -62 16 -78 25 -17 8 -70 17 -126 20 -67 4 -104 11&#10;-121 23 -31 21 -86 40 -117 40 -13 0 -36 8 -50 18 -29 18 -84 20 -318 7 -95&#10;-5 -138 -3 -210 11 -49 10 -94 21 -100 25 -29 21 -141 43 -237 46 -107 4 -148&#10;-4 -148 -30 0 -22 -54 -37 -136 -37 -73 0 -84 -3 -109 -25 -31 -30 -83 -44&#10;-94 -26 -5 7 -47 16 -97 21 -49 4 -102 15 -119 24 -18 10 -55 16 -93 16 -53 0&#10;-69 4 -98 27 -26 19 -51 28 -92 31 -34 3 -61 11 -68 19 -5 8 -31 17 -56 20&#10;-37 4 -49 2 -65 -17 -13 -14 -23 -18 -28 -11 -8 15 -153 14 -194 0 -18 -6 -44&#10;-22 -58 -35 -14 -13 -30 -24 -34 -24 -5 0 -18 -9 -29 -20 -15 -15 -33 -20 -75&#10;-20 -56 0 -123 -21 -136 -42 -13 -20 -134 -23 -160 -4 -16 11 -45 16 -96 16&#10;-42 0 -73 4 -73 10 0 6 -7 10 -15 10 -8 0 -15 5 -15 10 0 6 -10 15 -22 20 -13&#10;5 -36 18 -53 29 -23 16 -46 21 -102 21 -40 0 -73 3 -73 8 0 17 -60 32 -131 32&#10;-43 0 -80 4 -84 9 -3 5 -18 12 -34 16 -16 3 -35 13 -42 21 -7 8 -30 14 -58 14&#10;-26 0 -51 4 -57 9 -5 4 -31 16 -58 25 -84 27 -160 19 -201 -22 -22 -22 -37&#10;-26 -113 -32 -93 -7 -112 -13 -112 -35 0 -21 -46 -29 -90 -16 -20 6 -53 11&#10;-72 11 -19 0 -43 7 -54 15 -10 8 -35 15 -55 15 -20 0 -49 7 -65 15 -22 11 -49&#10;13 -115 8 -60 -4 -88 -2 -93 6 -4 6 -19 11 -34 11 -17 0 -32 8 -40 21 -12 19&#10;-19 20 -120 14 -73 -5 -111 -12 -118 -21 -17 -21 -130 -18 -204 6 -35 11 -88&#10;23 -119 26 -31 3 -68 7 -83 9 l-28 5 0 -260z"/>
</g>
</svg>