<?xml version="1.0" encoding="UTF-8" standalone="no"?>
<!-- Created with Inkscape (http://www.inkscape.org/) -->
<svg xmlns:rdf="http://www.w3.org/1999/02/22-rdf-syntax-ns#" xmlns="http://www.w3.org/2000/svg" version="1.1" xmlns:cc="http://creativecommons.org/ns#" xmlns:xlink="http://www.w3.org/1999/xlink" viewBox="0 0 163.5 157.4" xmlns:dc="http://purl.org/dc/elements/1.1/">
 <defs></defs>
 <metadata>
  <rdf:RDF>
   <cc:Work rdf:about="">
    <dc:format>image/svg+xml</dc:format>
    <dc:type rdf:resource="http://purl.org/dc/dcmitype/StillImage"/>
    <dc:title/>
   </cc:Work>
  </rdf:RDF>
 </metadata>
 <g fill-rule="nonzero" transform="translate(1408.6959,-429.32585)">
  <path fill="#231f20" d="m-1409,586.7,163.5,0,0-157.4-163.5,0,0,157.4z"/>
  <path fill="#FFF" d="m-1406,485.6s2.135,4.636,1.77,7.656c-0.3643,3.02,1.25,7.031,1.25,7.031l0.9375,3.489s0.417,3.177-0.208,5.677c0,0,0-0.834-1.094-1.562,0,0,0.5206,1.197,0.4688,1.562,0,0-1.302,0.5738-2.083,1.146l-0.9902,0.208-0.052,1.146,0.417-0.4688s1.615-0.104,1.562,0.3648-1.667,0.208-1.667,0.208l0.1562,0.625,2.031-0.0517s0.6245,0.0517,1.146-0.8858l6.562,0.0523,3.178,0.3125,0.1036,1.823,3.178-5s-0.729-0.1552-1.406,0.417c-0.6777,0.5728-3.334,1.146-5.209,1.25s-5.26,0.0518-5.26,0.0518,1.719-6.004,0.2598-10.78c-0.5723-1.875,0.5214-3.594,0.5214-3.594s-0.7812,0.2085-0.9375,0.4688c-0.1562,0.2608,0.1036-1.771,0.8848-2.916,0,0-0.8325,0.2598-1.354,0.9375,0,0,0.7812-1.458,2.239-3.334,0,0-1.562,0.3125-2.031,0.625,0,0,1.354-1.614,3.958-2.396,0,0-2.24-0.4692-5-0.6772l-3.333-3.385"/>
  <path fill="#FFF" d="m-1382,492.7s0.8857,0.2598,0.8857,1.614c0,0,0.2607-1.25,0.4687,15.89l-1.406,0.5205s-0.417,0.2608,0,0.4688,3.75,0.5205,3.75,0.5205,0.208,0.0528,0.5205-0.3642,0-0.6768,0-0.6768l-1.146,0.0517,0.1045-16.98s0-0.4165,0.9892-0.625c0.9893-0.208,0.4683-0.521-0.1044-0.625-0.5723-0.1035-4.062,0.209-4.062,0.209"/>
  <path fill="#FFF" d="m-1366,492.7,0,0.7812s1.641-0.3906,1.562,1.328c-0.078,1.719-0.8594,15.55-0.8594,15.55l-1.25,1.25h4.844l-1.562-1.016-0.078-15,15.23,16.09,0.625,0.0781s-0.078-10.31,0.7813-18.36l0.8593-0.7812h-3.984l-0.7813,0.9375s1.719-0.625,1.797,1.328c0,0,0.625,10.7,0.4687,13.67l-13.67-14.77,0.3125-0.7812s0.3125-0.3906-0.3907-0.3906c-0.7031,0-3.906,0.0781-3.906,0.0781"/>
  <path fill="#FFF" d="m-1325,492.7-9.844,0.1562-0.5732,0.417s1.564,0.5732,1.459,2.188l0.1035,5.677s-1.666,0.6778-3.02,1.823c0,0,1.927-0.5732,3.02-0.5732l0.053,7.969s-0.9902,1.042-1.303,1.406h9.688s0.053,1.042-0.052,1.511l3.594-3.594-0.5732-0.7295s-2.082,1.251-6.666,1.667l-3.23,0.104,0.2081-8.177s1.146,0.7295,3.386,0.1562c2.239-0.5728,2.708-1.77,2.708-1.77s-2.656,1.198-6.094,0.208v-7.188l8.021,0.1562s0.4161-0.7812-0.8857-1.406"/>
  <path fill="#FFF" d="m-1301,492.2s-1.355,1.042-5.938,10.1c-4.583,9.062-6.25,9.01-6.25,9.01l-0.052,0.3648,4.011,0.104s0.3125-0.104-0.1045-0.625c-0.4169-0.5205-0.3125-0.6768-0.3125-0.6768l4.167-8.49h6.875l4.375,8.281s-0.2089,0.521-0.8339,1.042-0.1036,0.4688-0.1036,0.4688l4.479-0.0518s0.3125-0.2608-1.406-2.136l-7.916-13.96s-0.834-1.458-0.9902-3.438"/>
  <path fill="#FFF" d="m-1270,494.6-1.719,1.094s-1.146-1.874-5.469-1.979c-4.323-0.1045-6.094,2.5-6.094,2.5s-3.646,4.479-0.7813,10.1c2.864,5.625,11.25,3.073,11.25,3.073s2.396-1.198,3.334-2.76l0.051-3.177s0.1563-1.51-2.448-1.77c0,0-1.459-0.4688-0.1037-0.625l4.688,0.0518s0.7287,0.0523,0.1037,0.625c0,0-0.99,0.2608-0.99,1.562,0,1.302,0.4175,2.814,0.105,4.011-0.3125,1.198-0.365,2.082-0.4175,2.76-0.051,0.6772-1.301,2.812-1.301,2.812s0.52-3.23,0.26-4.688c0,0-2.626,2.666-5.885,3.334-4.324,0.8852-7.501-1.198-7.501-1.198s-5.052-2.448-3.958-9.635c1.094-7.188,6.875-7.916,6.875-7.916s6.302-1.615,10,1.823"/>
  <path fill="#FFF" d="m-1249,494.6-8.021-0.1562,0.053,7.135s1.875,1.354,6.041-0.208c0,0-2.916,2.396-4.844,1.98-1.926-0.417-1.198-0.2608-1.198-0.2608l-0.4163,8.02s6.406,0.0523,10.1-1.562c0,0,0.7812,0.1562,0,0.9375-0.7813,0.7812-2.969,3.334-2.969,3.334v-1.562h-9.74l1.25-1.406v-8.073s-2.031,0.313-3.072,0.7295c0,0,1.822-1.772,3.021-1.98l-0.105-5.417s0.053-1.666-1.51-2.239l0.7812-0.5205,7.604-0.0528s1.199-1.25,1.199-2.083,1.875-3.177,2.551-3.281c0,0-1.822,1.927-0.7288,4.896,0,0,0.4688,0.626,0,1.772"/>
  <path fill="#231f20" d="m-1299,500.7-5.625,0.0522,2.865-4.531,2.76,4.479"/>
  <path fill="#FFF" d="m-1320,564.5c0,14.37,8.958,19.79,8.958,19.79-5.312-8.229-4.688-19.9-4.688-19.9l-0.1045-111.5c-0.1035-13.23,5-21.04,5-21.04-9.584,8.645-9.166,21.04-9.166,21.04v111.6"/>
  <path fill="#FFF" d="m-1339,564.4c0,14.38-8.959,19.79-8.959,19.79,5.312-8.23,4.688-19.9,4.688-19.9l0.1045-111.5c0.104-13.23-5-21.04-5-21.04,9.584,8.646,9.167,21.04,9.167,21.04v111.6"/>
  <path fill="#FFF" d="m-1372,516.9c-0.057,0-0.095,0.009-0.1133,0.0264-0.02,0.0181-0.036,0.0548-0.048,0.1104h-0.078v-0.791h0.076c0.013,0.0536,0.03,0.0897,0.052,0.1089,0.022,0.0185,0.059,0.0278,0.1123,0.0278h2.461c0.056,0,0.094-0.009,0.1132-0.0267,0.018-0.0176,0.035-0.0543,0.047-0.1099h0.078v0.7964h-0.078c-0.011-0.0557-0.027-0.0932-0.049-0.1129-0.022-0.0195-0.059-0.0293-0.1118-0.0293h-0.9136v2.183c0,0.0566,0.01,0.0947,0.026,0.1132,0.018,0.0191,0.055,0.0353,0.1104,0.0479v0.0781h-0.9082v-0.0781c0.054-0.0146,0.089-0.0322,0.1065-0.0532,0.016-0.0205,0.027-0.0581,0.03-0.1104v-2.18h-0.9126"/>
  <path fill="#FFF" d="m-1367,519.1c0,0.0543,0.01,0.0918,0.025,0.1118,0.017,0.0201,0.054,0.0363,0.1118,0.0489v0.0781h-0.918v-0.0781c0.057-0.0146,0.094-0.0322,0.1108-0.0532,0.017-0.0205,0.026-0.0566,0.026-0.1074v-2.468c0-0.0543-0.01-0.0919-0.027-0.1132-0.018-0.021-0.055-0.0381-0.1098-0.0509v-0.0684h0.918v0.0684c-0.054,0.0127-0.09,0.0299-0.1089,0.0509-0.018,0.0214-0.028,0.059-0.028,0.1132v0.9101h1.699v-0.9101c0-0.0576-0.01-0.0973-0.026-0.1158-0.017-0.0195-0.054-0.0356-0.1104-0.0484v-0.0684h0.918v0.0684c-0.054,0.0108-0.09,0.0269-0.1093,0.0484-0.018,0.0205-0.027,0.0596-0.027,0.1158v2.468c0,0.0561,0.01,0.0942,0.026,0.1128,0.018,0.0191,0.055,0.0361,0.1107,0.0509v0.0751h-0.918v-0.0781c0.054-0.0113,0.091-0.0269,0.1094-0.0479,0.018-0.0205,0.027-0.0585,0.027-0.1128v-1.011h-1.699v1.011"/>
  <path fill="#FFF" d="m-1361,518.8c0.059,0,0.099-0.009,0.1182-0.0264,0.019-0.0175,0.036-0.0546,0.049-0.1102h0.068v0.8008h-0.068c-0.013-0.0538-0.03-0.0899-0.052-0.1084-0.022-0.0191-0.06-0.0284-0.1153-0.0284h-2.665v-0.0781c0.057-0.0141,0.094-0.0322,0.1114-0.0532,0.017-0.0205,0.025-0.0561,0.025-0.1059v-2.468c0-0.0556-0.01-0.0933-0.027-0.1148-0.018-0.0214-0.055-0.0385-0.1099-0.0512v-0.0684h2.633c0.056,0,0.093-0.009,0.1127-0.0267,0.019-0.0176,0.035-0.0543,0.047-0.1099h0.078v0.8008h-0.078c-0.011-0.0538-0.027-0.0904-0.046-0.1084-0.02-0.0191-0.05-0.0284-0.093-0.0284h-1.873v0.6445h1.183c0.059,0,0.097-0.008,0.1153-0.0249,0.019-0.017,0.035-0.0536,0.049-0.1118h0.068v0.7519h-0.068c-0.011-0.0536-0.027-0.0902-0.048-0.1089-0.021-0.0185-0.06-0.0277-0.1167-0.0277h-1.183v0.7616h1.884"/>
  <path fill="#FFF" d="m-1352,518.3,0.059-0.039,0.4096,0.6366-0.065,0.0371c-0.022-0.0166-0.039-0.0277-0.049-0.0336-0.011-0.006-0.021-0.009-0.032-0.009-0.022,0-0.082,0.0299-0.1783,0.0884-0.4482,0.2628-0.8824,0.3941-1.301,0.3941-0.4893,0-0.895-0.145-1.218-0.4365-0.3237-0.2906-0.4854-0.6544-0.4854-1.092,0-0.4462,0.164-0.813,0.4932-1.099,0.3291-0.2856,0.7574-0.4291,1.284-0.4291,0.2695,0,0.542,0.0434,0.8159,0.1309,0.2744,0.0864,0.4199,0.1299,0.4365,0.1299,0.022-0.002,0.045-0.004,0.069-0.007s0.053-0.006,0.084-0.01l0.059,0.0385-0.4091,0.6646-0.069-0.0386v-0.0102-0.0166c0-0.0815-0.1078-0.166-0.3242-0.2534-0.2163-0.0869-0.4432-0.1304-0.6826-0.1304-0.3285,0-0.5986,0.0947-0.81,0.2838-0.2119,0.1894-0.3174,0.4272-0.3174,0.7148,0,0.3052,0.1055,0.5522,0.3159,0.7402,0.2115,0.1885,0.4874,0.2828,0.8281,0.2828,0.2505,0,0.4971-0.0548,0.7398-0.1655,0.2427-0.1104,0.3637-0.2002,0.3637-0.2686,0-0.0131,0-0.0283-0.01-0.0464,0-0.0171-0.01-0.0366-0.016-0.0566"/>
  <path fill="#FFF" d="m-1350,519.1c0,0.0543,0.01,0.0918,0.026,0.1118,0.017,0.0201,0.054,0.0363,0.1107,0.0489v0.0781h-0.9179v-0.0781c0.058-0.0146,0.095-0.0322,0.1118-0.0532,0.017-0.0205,0.025-0.0566,0.025-0.1074v-2.468c0-0.0543-0.01-0.0919-0.027-0.1132-0.018-0.021-0.054-0.0381-0.1099-0.0509v-0.0684h0.9179v0.0684c-0.054,0.0127-0.089,0.0299-0.1084,0.0509-0.018,0.0214-0.028,0.059-0.028,0.1132v0.9101h1.699v-0.9101c0-0.0576-0.01-0.0973-0.025-0.1158-0.018-0.0195-0.054-0.0356-0.1113-0.0484v-0.0684h0.9179v0.0684c-0.054,0.0108-0.089,0.0269-0.1084,0.0484-0.019,0.0205-0.028,0.0596-0.028,0.1158v2.468c0,0.0561,0.01,0.0942,0.027,0.1128,0.018,0.0191,0.055,0.0361,0.1099,0.0509v0.0751h-0.9179v-0.0781c0.055-0.0113,0.092-0.0269,0.1099-0.0479,0.018-0.0205,0.027-0.0585,0.027-0.1128v-1.011h-1.699v1.011"/>
  <path fill="#FFF" d="m-1347,519.3,0-0.0781c0.1026-0.0269,0.1856-0.1099,0.2495-0.249,0.01-0.0127,0.011-0.0244,0.017-0.0346l1.092-2.285c0.012-0.0249,0.021-0.0434,0.024-0.0533v-0.0292c0-0.0323-0.013-0.061-0.039-0.084-0.027-0.0244-0.066-0.0434-0.1167-0.0581v-0.0684h0.9971v0.0684c-0.055,0.0186-0.092,0.0366-0.1114,0.0553-0.019,0.018-0.028,0.0405-0.028,0.0684,0,0.0126,0,0.0272,0.01,0.0434,0,0.0166,0.012,0.0356,0.021,0.0576l1.128,2.287c0.049,0.0976,0.093,0.165,0.1328,0.2046,0.039,0.038,0.086,0.064,0.1406,0.0766v0.0781h-1.06v-0.0781c0.051-0.0166,0.087-0.0336,0.1084-0.0532,0.021-0.018,0.031-0.0429,0.031-0.0741,0-0.0122,0-0.0259-0.01-0.0406,0-0.0146-0.011-0.0341-0.022-0.0595l-0.2138-0.4464h-1.35l-0.2026,0.4464c-0.011,0.0254-0.018,0.0449-0.022,0.0595,0,0.0148-0.01,0.0284-0.01,0.0406,0,0.0312,0.01,0.0561,0.032,0.0741,0.021,0.0196,0.057,0.0366,0.1085,0.0532v0.0781h-0.9151zm1.7-2.191-0.501,1.038,0.9775,0-0.4765-1.038"/>
  <path fill="#231f20" d="m-1341,516.3c0.496,0,0.9038,0.1435,1.222,0.4301,0.3184,0.2871,0.4775,0.6485,0.4775,1.086,0,0.437-0.1601,0.7998-0.4804,1.089-0.3203,0.2885-0.7271,0.4326-1.219,0.4326-0.4859,0-0.8892-0.145-1.21-0.4361-0.3199-0.2895-0.4795-0.6522-0.4795-1.085,0-0.4346,0.1586-0.7959,0.476-1.084,0.3174-0.2876,0.7213-0.4316,1.213-0.4316zm-1.064,1.5c0,0.2982,0.097,0.5376,0.291,0.7182,0.1944,0.1811,0.4536,0.2715,0.7783,0.2715,0.3228,0,0.5816-0.0909,0.7764-0.273,0.1953-0.1816,0.2929-0.4204,0.2929-0.7168,0-0.2984-0.099-0.5381-0.2943-0.7198-0.1959-0.1821-0.4561-0.273-0.7803-0.273-0.3194,0-0.5772,0.0919-0.7715,0.274-0.1949,0.1831-0.2925,0.4224-0.2925,0.7188"/>
  <path fill="#FFF" d="m-1338,516.9c-0.057,0-0.095,0.009-0.1138,0.0264-0.019,0.0181-0.035,0.0548-0.048,0.1104h-0.078v-0.791h0.075c0.013,0.0536,0.03,0.0897,0.052,0.1089,0.021,0.0185,0.059,0.0278,0.1122,0.0278h2.46c0.056,0,0.094-0.009,0.1128-0.0267,0.019-0.0176,0.036-0.0543,0.048-0.1099h0.078v0.7964h-0.078c-0.011-0.0557-0.027-0.0932-0.049-0.1129-0.022-0.0195-0.059-0.0293-0.1117-0.0293h-0.9131v2.183c0,0.0566,0.01,0.0947,0.026,0.1132,0.018,0.0191,0.054,0.0353,0.1104,0.0479v0.0781h-0.9082v-0.0781c0.053-0.0146,0.088-0.0322,0.1055-0.0532,0.017-0.0205,0.027-0.0581,0.031-0.1104v-2.18h-0.9126"/>
  <path fill="#FFF" d="m-1333,519.1c0,0.0561,0.01,0.0937,0.026,0.1132,0.018,0.0195,0.055,0.0361,0.1102,0.0507v0.0684h-0.9277v-0.0712c0.058-0.0122,0.095-0.0294,0.1118-0.0504,0.017-0.021,0.025-0.0576,0.025-0.1108v-2.475c0-0.0561-0.01-0.0952-0.026-0.1158-0.017-0.0215-0.054-0.0376-0.1108-0.0484v-0.0684h0.9277v0.0684c-0.053,0.0108-0.09,0.0269-0.1084,0.0484-0.019,0.0205-0.028,0.0596-0.028,0.1158v2.475"/>
  <path fill="#FFF" d="m-1329,518.3,0.059-0.039,0.4096,0.6366-0.065,0.0371c-0.022-0.0166-0.039-0.0277-0.049-0.0336-0.011-0.006-0.021-0.009-0.033-0.009-0.021,0-0.081,0.0299-0.1777,0.0884-0.4482,0.2628-0.8823,0.3941-1.302,0.3941-0.4888,0-0.8945-0.145-1.218-0.4365-0.3232-0.2906-0.4849-0.6544-0.4849-1.092,0-0.4462,0.1642-0.813,0.4933-1.099,0.3291-0.2856,0.7572-0.4291,1.284-0.4291,0.2695,0,0.542,0.0434,0.816,0.1309,0.2749,0.0864,0.4199,0.1299,0.4365,0.1299,0.022-0.002,0.045-0.004,0.069-0.007s0.053-0.006,0.083-0.01l0.06,0.0385-0.4091,0.6646-0.069-0.0386v-0.0102c0.0005-0.003,0.001-0.009,0.001-0.0166,0-0.0815-0.1079-0.166-0.3243-0.2534-0.2162-0.0869-0.4438-0.1304-0.6831-0.1304-0.3281,0-0.5976,0.0947-0.8095,0.2838-0.212,0.1894-0.3174,0.4272-0.3174,0.7148,0,0.3052,0.1054,0.5522,0.3159,0.7402,0.2114,0.1885,0.4872,0.2828,0.8286,0.2828,0.25,0,0.4965-0.0548,0.7398-0.1655,0.2421-0.1104,0.3637-0.2002,0.3637-0.2686,0-0.0131,0-0.0283-0.01-0.0464,0-0.0171-0.01-0.0366-0.016-0.0566"/>
  <path fill="#FFF" d="m-1321,518.3,0.059-0.039,0.4096,0.6366-0.065,0.0371c-0.022-0.0166-0.038-0.0277-0.049-0.0336-0.011-0.006-0.022-0.009-0.033-0.009-0.022,0-0.082,0.0299-0.1778,0.0884-0.4487,0.2628-0.8828,0.3941-1.302,0.3941-0.4884,0-0.895-0.145-1.218-0.4365-0.3237-0.2906-0.4853-0.6544-0.4853-1.092,0-0.4462,0.1645-0.813,0.4936-1.099,0.3291-0.2856,0.7569-0.4291,1.284-0.4291,0.2699,0,0.5418,0.0434,0.8158,0.1309,0.2749,0.0864,0.4199,0.1299,0.4365,0.1299,0.022-0.002,0.045-0.004,0.07-0.007,0.024-0.003,0.052-0.006,0.083-0.01l0.059,0.0385-0.4086,0.6646-0.07-0.0386v-0.0102c0.001-0.003,0.001-0.009,0.001-0.0166,0-0.0815-0.1079-0.166-0.3243-0.2534-0.2157-0.0869-0.4432-0.1304-0.6826-0.1304-0.3285,0-0.5981,0.0947-0.81,0.2838-0.2119,0.1894-0.3174,0.4272-0.3174,0.7148,0,0.3052,0.1055,0.5522,0.3159,0.7402,0.2115,0.1885,0.4874,0.2828,0.8291,0.2828,0.2495,0,0.4961-0.0548,0.7393-0.1655,0.2427-0.1104,0.3642-0.2002,0.3642-0.2686,0-0.0131,0-0.0283-0.01-0.0464,0-0.0171-0.01-0.0366-0.017-0.0566"/>
  <path fill="#231f20" d="m-1319,519.1c0,0.0543,0.01,0.0918,0.025,0.1118,0.017,0.0201,0.054,0.0363,0.1117,0.0489v0.0781h-0.9179v-0.0781c0.057-0.0146,0.094-0.0322,0.1108-0.0532,0.017-0.0205,0.026-0.0566,0.026-0.1074v-2.468c0-0.0543-0.01-0.0919-0.027-0.1132-0.018-0.021-0.055-0.0381-0.1098-0.0509v-0.0684h0.9179v0.0684c-0.054,0.0127-0.09,0.0299-0.1088,0.0509-0.018,0.0214-0.028,0.059-0.028,0.1132v0.9101h1.699v-0.9101c0-0.0576-0.01-0.0973-0.026-0.1158-0.017-0.0195-0.054-0.0356-0.1104-0.0484v-0.0684h0.918v0.0684c-0.054,0.0108-0.09,0.0269-0.1094,0.0484-0.018,0.0205-0.027,0.0596-0.027,0.1158v2.468c0,0.0561,0.01,0.0942,0.026,0.1128,0.018,0.0191,0.055,0.0361,0.1109,0.0509v0.0751h-0.918v-0.0781c0.054-0.0113,0.091-0.0269,0.109-0.0479,0.018-0.0205,0.028-0.0585,0.028-0.1128v-1.011h-1.699v1.011"/>
  <path fill="#FFF" d="m-1315,519.3,0-0.0781c0.055-0.0113,0.092-0.0274,0.1099-0.0489,0.018-0.0214,0.027-0.059,0.027-0.1118v-2.466c0-0.0512-0.01-0.0884-0.025-0.1108-0.017-0.022-0.055-0.0406-0.1114-0.0557v-0.0684h1.844c0.3844,0,0.6822,0.0752,0.8947,0.2246,0.2124,0.1495,0.3182,0.3585,0.3182,0.627,0,0.2208-0.066,0.4029-0.1962,0.5454-0.1314,0.1436-0.3325,0.2515-0.6055,0.3248l0.6226,0.8618c0.037,0.0533,0.078,0.0991,0.1235,0.1382,0.046,0.039,0.1196,0.0854,0.2218,0.1396v0.0781h-1.08v-0.0781c0.039-0.005,0.07-0.0166,0.091-0.0322,0.021-0.0166,0.032-0.0366,0.032-0.06,0-0.005-0.01-0.024-0.022-0.0548-0.015-0.0308-0.03-0.0576-0.047-0.081l-0.6148-0.895h-0.8009v0.9624c0,0.0543,0.01,0.0918,0.025,0.1118,0.017,0.0201,0.055,0.0362,0.1118,0.0489v0.0781h-0.918zm1.666-2.432-0.8844,0,0,0.8008,0.9063,0c0.2681,0,0.459-0.0322,0.5727-0.0961,0.1143-0.0645,0.1714-0.17,0.1714-0.3165,0-0.141-0.056-0.2411-0.167-0.2998-0.1112-0.0591-0.311-0.0884-0.599-0.0884"/>
  <path fill="#FFF" d="m-1309,516.3c0.496,0,0.9037,0.1435,1.223,0.4301,0.3179,0.2871,0.477,0.6485,0.477,1.086,0,0.437-0.1596,0.7998-0.4803,1.089-0.3199,0.2885-0.7272,0.4326-1.219,0.4326-0.4859,0-0.8887-0.145-1.208-0.4361-0.3209-0.2895-0.4805-0.6522-0.4805-1.085,0-0.4346,0.1586-0.7959,0.4761-1.084,0.3174-0.2876,0.7216-0.4316,1.213-0.4316zm-1.064,1.5c0,0.2982,0.097,0.5376,0.291,0.7182,0.1944,0.1811,0.4536,0.2715,0.7784,0.2715,0.3227,0,0.5815-0.0909,0.7767-0.273,0.1949-0.1816,0.2925-0.4204,0.2925-0.7168,0-0.2984-0.098-0.5381-0.2938-0.7198-0.1964-0.1821-0.4562-0.273-0.7808-0.273-0.3194,0-0.5762,0.0919-0.7715,0.274-0.1949,0.1831-0.2925,0.4224-0.2925,0.7188"/>
  <path fill="#FFF" d="m-1305,517.3,0,1.757c0,0.0561,0.01,0.0937,0.026,0.1132,0.018,0.0191,0.054,0.0353,0.1103,0.0479v0.0781h-0.8398v-0.0781c0.057-0.0146,0.094-0.0322,0.1112-0.0532,0.017-0.0205,0.025-0.0571,0.025-0.1079v-2.468c0-0.0548-0.01-0.0928-0.027-0.1132-0.018-0.021-0.055-0.0381-0.1098-0.0509v-0.0684h1.052v0.0684c-0.027,0.005-0.049,0.0151-0.067,0.0299-0.017,0.0146-0.027,0.0331-0.029,0.0551,0,0.02,0.01,0.04,0.018,0.0596,0.011,0.0205,0.032,0.0454,0.061,0.0736l1.591,1.624v-1.678c0-0.0566-0.01-0.0937-0.025-0.1132-0.017-0.0196-0.054-0.0361-0.1113-0.0509v-0.0684h0.8398v0.0684c-0.058,0.0148-0.095,0.0328-0.1113,0.0543-0.018,0.022-0.025,0.0586-0.025,0.1099v2.468c0,0.0543,0.01,0.0923,0.026,0.1132,0.017,0.021,0.054,0.0366,0.1103,0.0479v0.0781h-0.9678v-0.0781c0.029-0.005,0.051-0.0151,0.067-0.0297,0.017-0.0146,0.025-0.0318,0.025-0.0518,0-0.0205-0.01-0.041-0.018-0.062-0.012-0.0205-0.031-0.045-0.059-0.0722l-1.675-1.703"/>
  <path fill="#FFF" d="m-1301,519.1c0,0.0561,0.01,0.0937,0.027,0.1132,0.018,0.0195,0.054,0.0361,0.1098,0.0507v0.0684h-0.9277v-0.0712c0.058-0.0122,0.095-0.0294,0.1114-0.0504,0.017-0.021,0.025-0.0576,0.025-0.1108v-2.475c0-0.0561-0.01-0.0952-0.026-0.1158-0.018-0.0215-0.055-0.0376-0.1104-0.0484v-0.0684h0.9277v0.0684c-0.054,0.0108-0.09,0.0269-0.1088,0.0484-0.019,0.0205-0.028,0.0596-0.028,0.1158v2.475"/>
  <path fill="#FFF" d="m-1297,518.3,0.059-0.039,0.4098,0.6366-0.066,0.0371c-0.022-0.0166-0.038-0.0277-0.049-0.0336-0.011-0.006-0.022-0.009-0.033-0.009-0.023,0-0.082,0.0299-0.1778,0.0884-0.4487,0.2628-0.8827,0.3941-1.302,0.3941-0.4882,0-0.895-0.145-1.218-0.4365-0.3238-0.2906-0.4854-0.6544-0.4854-1.092,0-0.4462,0.1645-0.813,0.4936-1.099,0.3291-0.2856,0.7569-0.4291,1.284-0.4291,0.2696,0,0.542,0.0434,0.8159,0.1309,0.2744,0.0864,0.42,0.1299,0.4365,0.1299,0.022-0.002,0.045-0.004,0.069-0.007s0.053-0.006,0.084-0.01l0.059,0.0385-0.4092,0.6646-0.069-0.0386v-0.0102c0.0009-0.003,0.0009-0.009,0.0009-0.0166,0-0.0815-0.1079-0.166-0.3242-0.2534-0.2158-0.0869-0.4433-0.1304-0.6826-0.1304-0.3286,0-0.5981,0.0947-0.8101,0.2838-0.2119,0.1894-0.3174,0.4272-0.3174,0.7148,0,0.3052,0.1055,0.5522,0.316,0.7402,0.2114,0.1885,0.4873,0.2828,0.829,0.2828,0.2495,0,0.4961-0.0548,0.7389-0.1655,0.2431-0.1104,0.3646-0.2002,0.3646-0.2686,0-0.0131,0-0.0283-0.01-0.0464,0-0.0171-0.01-0.0366-0.017-0.0566"/>
  <path fill="#FFF" d="m-1292,518.8c0.059,0,0.097-0.008,0.1147-0.0239,0.019-0.0156,0.034-0.0499,0.047-0.103l0.078-0.003v0.794h-0.078c-0.011-0.0538-0.027-0.0899-0.049-0.1084-0.022-0.0191-0.059-0.0284-0.1124-0.0284h-2.621v-0.0781c0.057-0.0141,0.094-0.0322,0.1107-0.0532,0.017-0.0205,0.025-0.0561,0.025-0.1059v-2.469c0-0.0553-0.01-0.0929-0.026-0.1142-0.019-0.021-0.055-0.0381-0.1098-0.0509v-0.0684h0.9175v0.0684c-0.053,0.0127-0.09,0.0299-0.1085,0.0509-0.019,0.0214-0.028,0.059-0.028,0.1142v2.179h1.84"/>
  <path fill="#FFF" d="m-1288,518.8c0.059,0,0.098-0.009,0.1177-0.0264,0.02-0.0175,0.036-0.0546,0.049-0.1102h0.068v0.8008h-0.068c-0.013-0.0538-0.03-0.0899-0.051-0.1084-0.021-0.0191-0.06-0.0284-0.1153-0.0284h-2.666v-0.0781c0.058-0.0141,0.095-0.0322,0.1119-0.0532,0.017-0.0205,0.025-0.0561,0.025-0.1059v-2.468c0-0.0556-0.01-0.0933-0.027-0.1148-0.017-0.0214-0.054-0.0385-0.1099-0.0512v-0.0684h2.633c0.056,0,0.094-0.009,0.1127-0.0267,0.019-0.0176,0.035-0.0543,0.047-0.1099h0.078v0.8008h-0.078c-0.011-0.0538-0.026-0.0904-0.045-0.1084-0.021-0.0191-0.051-0.0284-0.093-0.0284h-1.874v0.6445h1.184c0.059,0,0.097-0.008,0.1147-0.0249,0.019-0.017,0.035-0.0536,0.049-0.1118h0.068v0.7519h-0.068c-0.011-0.0536-0.027-0.0902-0.047-0.1089-0.021-0.0185-0.06-0.0277-0.1167-0.0277h-1.184v0.7616h1.884"/>
 </g>
</svg>
